<?xml version="1.0" encoding="utf-8"?>
<!-- Generator: Adobe Illustrator 26.5.0, SVG Export Plug-In . SVG Version: 6.00 Build 0)  -->
<svg version="1.1" id="Layer_1" xmlns="http://www.w3.org/2000/svg" xmlns:xlink="http://www.w3.org/1999/xlink" x="0px" y="0px"
	 viewBox="0 0 360 360" style="enable-background:new 0 0 360 360;" xml:space="preserve">
<style type="text/css">
	.st0{fill:none;}
	.st1{font-family:'ArialMT';}
	.st2{font-size:12px;}
</style>
<g id="osffset">
</g>
<g id="Layer_6">
</g>
<g>
	<path d="M140,279.2c-51-17.3-85.3-65-85.3-118.8C54.6,91.3,110.9,35,180,35s125.4,56.2,125.4,125.4c0,53.6-34,101.2-84.6,118.6
		l-5.3-15.4c44-15.1,73.6-56.6,73.6-103.2c0-60.1-48.9-109-109-109c-60.1,0-109,48.9-109,109c0,46.8,29.8,88.3,74.3,103.4L140,279.2
		z"/>
	<path d="M185.9,195.7h-11.7c-12,0-21.8-9.8-21.8-21.8V98.8c-14.4,6.4-26,17.6-33,32c-2,4-6.9,5.7-10.9,3.7c-4-2-5.7-6.9-3.7-10.9
		c9.7-19.6,26.3-34.6,46.7-42c3.9-1.4,8.3-0.9,11.8,1.6c3.4,2.4,5.5,6.3,5.5,10.5v80.2c0,3,2.4,5.4,5.4,5.4h11.7
		c3,0,5.4-2.4,5.4-5.4V93.6c0-4.2,2-8.1,5.4-10.5c3.4-2.4,7.8-3,11.7-1.6c20.6,7.5,37.7,23,47,42.5c2,4.1,0.2,8.9-3.8,10.9
		c-4.1,1.9-8.9,0.2-10.9-3.8c-6.8-14.2-18.7-25.7-33.2-32.3v75.1C207.7,185.9,197.9,195.7,185.9,195.7z M157.1,97
		C157.1,97,157.1,97,157.1,97C157.1,97,157.1,97,157.1,97z"/>
	<path d="M158.8,150.2h-18.5c-4.4,0-7.9-3.5-7.9-7.9s3.5-7.9,7.9-7.9h18.5c4.4,0,7.9,3.5,7.9,7.9S163.2,150.2,158.8,150.2z"/>
	<path d="M220,150.2h-18.5c-4.4,0-7.9-3.5-7.9-7.9s3.5-7.9,7.9-7.9H220c4.4,0,7.9,3.5,7.9,7.9S224.4,150.2,220,150.2z"/>
	<path d="M180.1,325.1c-25.6,0-46.4-20.8-46.4-46.4v-54.2h16.3v54.2c0,16.6,13.5,30,30,30s30-13.5,30-30v-54h16.3v54
		C226.5,304.3,205.7,325.1,180.1,325.1z"/>
	<path d="M180.1,243.8c-29.1,0-55.7-14.8-71.1-39.6c-2.6-4.2-1.3-9.7,2.9-12.3c4.2-2.6,9.7-1.3,12.3,2.9
		c12.1,19.5,33,31.2,55.9,31.2c23,0,43.9-11.6,55.9-31.1c2.6-4.2,8.1-5.5,12.3-2.9c4.2,2.6,5.5,8.1,2.9,12.3
		C235.9,229,209.4,243.8,180.1,243.8z"/>
	<path d="M180.1,276.7c-4.5,0-8.2-3.7-8.2-8.2v-33.6c0-4.5,3.7-8.2,8.2-8.2s8.2,3.7,8.2,8.2v33.6C188.3,273,184.6,276.7,180.1,276.7
		z"/>
</g>
<path id="SVGID_x5F_1_x5F_" class="st0" d="M-57.4,165.8c0,55.5-45,100.4-100.4,100.4s-100.4-45-100.4-100.4s45-100.4,100.4-100.4
	S-57.4,110.3-57.4,165.8z"/>
<text class="st1 st2"> </text>
</svg>
