<svg width="311" height="311" viewBox="0 0 311 311" fill="none" xmlns="http://www.w3.org/2000/svg">
<g clip-path="url(#clip0_3_2)">
<path d="M19.3 160.61C15.9 160.61 12.7 162.11 10.6 164.81C10.6 163.61 10.5 162.51 10.3 161.51C9.5 158.51 7.9 157.01 5.5 156.91C4.7 156.91 4.1 157.21 3.5 157.71C3 158.21 2.7 158.91 2.7 159.71C2.7 160.61 3 161.21 3.5 161.71C3.8 162.01 4.3 162.21 4.7 162.21C5.7 162.21 6.5 161.41 6.5 160.41C6.5 159.61 6 159.01 5.4 158.71C6.9 158.81 7.9 159.91 8.5 162.01C9.1 164.51 8.6 167.71 8.3 169.41V169.51C8.3 169.71 8.2 169.81 8.2 169.81V169.91V170.01C8 170.81 8 171.51 8 172.31C8 176.21 11.1 179.31 15 179.31C18.9 179.31 22 176.21 22 172.31C22 172.31 22 172.21 22 172.11C21.8 169.21 19.5 167.01 16.7 167.01H16.3C14.8 167.11 13.5 168.41 13.5 170.01C13.5 171.61 14.9 173.01 16.5 173.01C18 173.01 19.4 171.71 19.5 170.21C20 170.81 20.3 171.61 20.3 172.41C20.3 175.21 17.9 177.61 15.1 177.61C12.3 177.61 9.9 175.21 9.9 172.41C9.9 171.71 10 171.01 10.1 170.31V170.21C10.1 170.11 10.1 170.01 10.2 170.01C10.2 169.91 10.2 169.91 10.3 169.81C11.5 165.61 15.3 162.81 19.8 162.81C25.3 162.81 29.5 167.11 29.5 172.51V206.31C28.4 203.51 27 201.01 25.3 198.71L25 198.31C23.3 196.21 21.4 191.31 22.3 188.51C22.7 187.51 23.3 187.01 24.3 186.71H24.5C24.7 186.71 24.8 186.61 24.9 186.61H25C25.2 186.61 25.3 186.61 25.5 186.61C26.7 186.91 27.5 187.91 27.5 189.11C27.5 189.71 27.3 190.21 27 190.61C26.7 189.81 25.9 189.11 24.9 189.11C23.7 189.11 22.7 190.11 22.7 191.31C22.7 192.51 23.7 193.51 24.9 193.51C25.2 193.51 25.5 193.41 25.8 193.31C27.8 192.91 29.3 191.11 29.3 189.01C29.3 186.71 27.5 184.81 25.2 184.71C26.8 182.91 28.9 179.91 27.3 177.41C27.3 177.31 27.2 177.31 27.2 177.21C27.2 177.11 27.1 177.11 27 177.01C26.3 176.21 25.4 175.81 24.4 175.81C22.6 175.81 21.2 177.21 21.2 179.01C21.2 179.71 21.6 180.51 22.1 181.11L22.2 181.21C22.3 181.31 22.5 181.41 22.7 181.51C22.9 181.61 23.2 181.71 23.5 181.71C24.6 181.71 25.5 180.81 25.5 179.71C25.5 178.71 24.7 177.81 23.7 177.71C23.9 177.61 24.1 177.61 24.3 177.61C24.8 177.61 25.2 177.81 25.5 178.11C26.8 179.91 24.6 182.41 22.8 184.51L22.6 184.71C22.2 185.11 21.8 185.61 21.5 186.01C21 186.51 20.7 187.01 20.5 187.81C20 189.51 20.2 191.41 20.6 192.91C19.5 191.61 18.1 190.11 16.6 188.41C14.5 186.01 12 183.31 10.3 181.11C10 180.61 9.7 180.21 9.6 180.11L9.3 179.81C8.5 178.71 7.9 177.81 7.6 177.11C7.5 177.01 2 168.31 2 155.71V155.31C2 142.81 7.5 134.11 7.5 134.01C7.8 133.31 8.4 132.41 9.2 131.31L9.5 131.01C9.6 130.91 9.8 130.61 10.2 130.01C12 127.81 14.4 125.11 16.5 122.71C18 121.01 19.4 119.51 20.5 118.21C20.1 119.71 19.9 121.71 20.4 123.41C20.6 124.11 21 124.71 21.4 125.21C21.7 125.61 22 126.11 22.5 126.51L22.6 126.71C24.4 128.81 26.6 131.41 25.3 133.11C25 133.51 24.6 133.61 24.1 133.61C23.9 133.61 23.7 133.51 23.5 133.51C24.5 133.41 25.3 132.51 25.3 131.51C25.3 130.41 24.4 129.51 23.3 129.51C23 129.51 22.7 129.61 22.4 129.71C22.2 129.81 22.1 129.91 21.9 130.01L21.8 130.11C21.3 130.71 20.9 131.51 20.9 132.21C20.9 134.01 22.3 135.31 24 135.31C25 135.31 25.9 134.91 26.6 134.11C26.7 134.01 26.7 134.01 26.8 133.91C26.8 133.91 26.9 133.81 26.9 133.71C28.5 131.21 26.4 128.31 24.8 126.41C27.1 126.31 28.9 124.41 28.9 122.11C28.9 120.01 27.4 118.31 25.4 117.81C25.1 117.71 24.8 117.61 24.5 117.61C23.3 117.61 22.3 118.61 22.3 119.81C22.3 121.01 23.3 122.01 24.5 122.01C25.4 122.01 26.3 121.41 26.5 120.51C26.8 120.91 27 121.51 27 122.01C27 123.21 26.2 124.21 25 124.51C24.9 124.51 24.7 124.51 24.5 124.51H24.4C24.2 124.51 24.2 124.51 24 124.41H23.8C22.8 124.11 22.2 123.61 21.8 122.61C20.9 119.81 22.8 114.91 24.5 112.81L24.8 112.41C26.6 110.11 27.9 107.61 29 104.81V138.61C29 144.11 24.7 148.31 19.3 148.31C14.9 148.31 11.1 145.51 9.8 141.31C9.8 141.21 9.8 141.11 9.7 141.11C9.7 141.01 9.7 140.91 9.6 140.91V140.81C9.4 140.11 9.4 139.41 9.4 138.71C9.4 135.91 11.8 133.51 14.6 133.51C17.4 133.51 19.8 135.91 19.8 138.71C19.8 139.51 19.5 140.31 19 140.91C18.9 139.41 17.6 138.11 16 138.11C14.4 138.11 13 139.51 13 141.01C13 142.61 14.2 143.91 15.8 144.01H16.2C19 144.01 21.3 141.81 21.5 138.81C21.5 138.71 21.5 138.71 21.5 138.61C21.5 134.71 18.4 131.61 14.5 131.61C10.6 131.61 7.5 134.71 7.5 138.61C7.5 139.41 7.6 140.11 7.7 140.91V141.01C7.7 141.01 7.7 141.01 7.7 141.11C7.7 141.21 7.7 141.31 7.8 141.41V141.51C8.2 143.21 8.7 146.31 8 148.91C7.5 151.01 6.5 152.11 4.9 152.21C5.6 151.91 6 151.31 6 150.51C6 149.51 5.2 148.71 4.2 148.71C3.7 148.71 3.3 148.91 3 149.21C2.5 149.61 2.2 150.31 2.2 151.21C2.2 152.01 2.5 152.61 3 153.11C3.5 153.61 4.2 153.91 5 153.91C7.5 153.81 9.1 152.21 9.8 149.31C10 148.31 10.1 147.21 10.1 146.01C12.3 148.61 15.4 150.11 18.8 150.11C25.2 150.11 30.4 144.91 30.4 138.61V96.81H28.6V97.21C28.6 97.31 28.3 104.81 22.7 111.81C20.8 114.31 18.5 116.91 16.2 119.51C15.7 120.11 15.1 120.71 14.6 121.41C14.1 122.01 13.5 122.61 13 123.21C12.4 123.91 11.7 124.61 11.1 125.31C11.1 125.01 11.1 124.81 11 124.51C10.8 123.31 10 122.31 8.8 121.71C7.9 121.21 6.8 121.01 5.8 121.41C4.9 121.81 4.3 122.21 4 122.71L3.8 123.11C3.7 123.41 3.6 123.71 3.6 124.01C3.6 125.31 4.6 126.31 5.8 126.31C7 126.31 8.1 125.31 8.1 124.01C8.1 123.81 8.1 123.51 8 123.31C8.7 123.61 9.1 124.21 9.2 124.81C9.6 126.81 7.4 129.61 7.4 129.61L7.2 129.91C6.3 131.11 5.7 132.11 5.3 132.81C5.1 133.11 2.9 136.71 1.2 142.41V112.11C1.3 108.11 4.7 104.81 8.7 104.81C12.8 104.81 16.2 108.21 16.2 112.31V112.41C16.2 115.21 14 117.31 11.2 117.31C10.9 117.31 10.7 117.31 10.4 117.21C11.1 116.61 11.6 115.71 11.6 114.71C11.6 112.91 10.2 111.51 8.4 111.51C6.6 111.51 5.2 112.91 5.2 114.71C5.2 115.71 5.7 116.71 6.6 117.31C7.8 118.41 9.4 119.01 11.1 119.01C14.8 119.01 17.8 116.21 17.9 112.61V111.81C17.7 106.91 13.6 102.91 8.7 102.91C6 102.91 3.5 104.01 1.7 106.11C2.3 102.81 3.5 100.81 5.4 100.11C5.6 100.81 6.2 101.21 6.9 101.21C7.7 101.21 8.5 100.51 8.5 99.61C8.5 98.81 8 98.21 7.2 98.01H6.8C2.6 98.41 0 102.31 0 110.81C0 111.01 0 111.21 0 111.41V111.81V199.11V199.51C0 199.71 0 199.91 0 200.11C0 208.43 2.6 212.51 7.3 212.71H7.7C8.5 212.61 9 212.01 9 211.11C9 210.21 8.2 209.51 7.4 209.51C6.7 209.51 6.1 210.01 5.9 210.61C4.1 209.91 2.8 207.91 2.2 204.61C4 206.61 6.5 207.81 9.2 207.81C14.2 207.81 18.3 203.91 18.4 198.91V198.11C18.3 196.31 17.6 194.71 16.4 193.61C15.2 192.41 13.5 191.71 11.7 191.71C10 191.71 8.5 192.31 7.2 193.41C6.3 194.01 5.8 195.01 5.8 196.01C5.8 197.81 7.2 199.21 9 199.21C10.8 199.21 12.2 197.81 12.2 196.01C12.2 195.01 11.7 194.11 11 193.51C11.3 193.51 11.5 193.41 11.8 193.41C14.6 193.41 16.8 195.61 16.8 198.31V198.41C16.8 202.51 13.4 205.91 9.3 205.91C5.3 205.91 1.9 202.61 1.8 198.61V168.41C3.4 174.11 5.7 177.61 5.9 178.01C6.3 178.81 6.9 179.71 7.8 180.91L8 181.21C8 181.21 10.2 183.91 9.8 186.01C9.7 186.71 9.3 187.21 8.6 187.51C8.7 187.31 8.7 187.01 8.7 186.81C8.7 185.61 7.7 184.51 6.4 184.51C5.2 184.51 4.2 185.51 4.2 186.81C4.2 187.11 4.3 187.41 4.4 187.71L4.6 188.11C4.9 188.61 5.5 189.11 6.4 189.41C7.4 189.81 8.5 189.61 9.4 189.11C10.6 188.41 11.4 187.51 11.6 186.31C11.6 186.01 11.7 185.81 11.7 185.51C12.3 186.21 12.9 186.91 13.6 187.61C14.1 188.21 14.6 188.81 15.2 189.41C15.7 190.01 16.3 190.61 16.8 191.31C19.1 193.91 21.4 196.51 23.3 199.01C28.9 206.11 29.2 213.61 29.2 213.61V214.01L31 213.91V172.01C31 165.81 25.8 160.61 19.3 160.61Z" fill="#010101"/>
<path d="M213.48 28.63C213.38 28.63 206.13 28.9 199.13 23.3C196.63 21.4 194.03 19.1 191.43 16.8C190.83 16.3 190.23 15.7 189.53 15.2C188.93 14.7 188.33 14.1 187.73 13.6C186.93 13 186.23 12.3 185.53 11.7C185.83 11.7 186.03 11.7 186.33 11.6C187.53 11.4 188.53 10.6 189.13 9.4C189.63 8.5 189.83 7.4 189.43 6.4C189.03 5.5 188.63 4.9 188.13 4.6L187.73 4.4C187.43 4.3 187.13 4.2 186.83 4.2C185.53 4.2 184.53 5.2 184.53 6.4C184.53 7.6 185.53 8.7 186.83 8.7C187.03 8.7 187.33 8.7 187.53 8.6C187.23 9.3 186.63 9.7 185.93 9.8C183.93 10.2 181.13 8 181.13 8L180.93 7.7C179.73 6.8 178.83 6.2 178.03 5.8C177.73 5.6 174.13 3.4 168.43 1.7H198.73C202.73 1.8 206.03 5.2 206.03 9.2C206.03 13.3 202.63 16.7 198.53 16.7H198.43C195.63 16.7 193.53 14.5 193.53 11.7C193.53 11.4 193.53 11.2 193.63 10.9C194.23 11.6 195.13 12.1 196.13 12.1C197.93 12.1 199.23 10.7 199.23 8.9C199.23 7.1 197.83 5.7 196.13 5.7C195.13 5.7 194.13 6.2 193.53 7.1C192.43 8.3 191.83 9.9 191.83 11.6C191.83 15.3 194.63 18.3 198.23 18.4H199.03C203.93 18.2 207.93 14.1 207.93 9.2C207.93 6.5 206.83 4 204.73 2.2C208.03 2.8 210.13 4 210.83 5.9C210.13 6.1 209.73 6.7 209.73 7.4C209.73 8.2 210.33 9 211.33 9C212.13 9 212.73 8.5 212.93 7.7V7.3C212.73 2.6 208.43 0.2 200.33 0C200.13 0 199.93 0 199.73 0H199.33H112.03H111.63C111.43 0 111.23 0 111.03 0C102.83 0.1 98.63 2.6 98.43 7.3V7.7C98.43 8.5 99.03 9 99.83 9C100.83 9 101.43 8.2 101.43 7.4C101.43 6.7 101.03 6.1 100.33 5.9C101.03 4.1 103.03 2.8 106.43 2.2C104.33 4 103.23 6.5 103.23 9.2C103.23 14.2 107.13 18.3 112.13 18.4H112.93C114.73 18.3 116.33 17.6 117.43 16.4C118.53 15.2 119.33 13.5 119.33 11.7C119.33 10 118.73 8.5 117.63 7.2C116.93 6.3 115.93 5.8 114.93 5.8C113.13 5.8 111.73 7.2 111.73 9C111.73 10.8 113.13 12.2 114.93 12.2C115.93 12.2 116.83 11.7 117.43 11C117.43 11.3 117.53 11.5 117.53 11.8C117.53 14.6 115.33 16.8 112.63 16.8H112.53C108.43 16.8 105.03 13.4 105.03 9.3C105.03 5.3 108.33 1.9 112.33 1.8H142.53C136.83 3.4 133.33 5.7 132.93 5.9C132.13 6.3 131.23 6.9 130.03 7.8L129.73 8C129.73 8 127.03 10.2 124.93 9.8C124.23 9.7 123.73 9.3 123.33 8.6C123.53 8.7 123.83 8.7 124.03 8.7C125.23 8.7 126.33 7.7 126.33 6.4C126.33 5.2 125.33 4.2 124.03 4.2C123.73 4.2 123.43 4.3 123.13 4.4L122.73 4.6C122.23 4.9 121.73 5.5 121.43 6.4C121.13 7.4 121.23 8.5 121.73 9.4C122.43 10.6 123.33 11.4 124.53 11.6C124.83 11.6 125.03 11.7 125.33 11.7C124.63 12.3 123.93 12.9 123.13 13.6C122.53 14.1 121.93 14.6 121.33 15.2C120.73 15.7 120.13 16.3 119.43 16.8C116.93 19.1 114.23 21.4 111.73 23.3C104.63 28.9 97.13 29.2 97.13 29.2H96.73L96.83 31H138.73C145.03 31 150.23 25.8 150.23 19.4C150.23 16 148.73 12.8 146.13 10.7C147.33 10.7 148.43 10.6 149.43 10.4C152.43 9.6 153.93 8 154.03 5.6C154.03 4.8 153.73 4.2 153.23 3.6C152.73 3.1 152.03 2.8 151.23 2.8C150.33 2.8 149.73 3.1 149.23 3.6C148.93 3.9 148.73 4.4 148.73 4.8C148.73 5.8 149.53 6.6 150.53 6.6C151.33 6.6 151.93 6.1 152.23 5.5C152.03 7 150.93 8 148.83 8.5C146.33 9.1 143.13 8.6 141.43 8.3H141.33C141.13 8.3 141.03 8.2 141.03 8.2H140.93C140.13 8 139.43 8 138.63 8C134.73 8 131.63 11.1 131.63 15C131.63 18.9 134.73 22 138.63 22C138.63 22 138.73 22 138.83 22C141.73 21.8 144.03 19.5 144.03 16.7V16.3C143.93 14.8 142.63 13.5 141.03 13.5C139.43 13.5 138.03 14.9 138.03 16.5C138.03 18 139.33 19.4 140.83 19.5C140.23 20 139.43 20.3 138.63 20.3C135.83 20.3 133.43 17.9 133.43 15.1C133.43 12.3 135.83 9.9 138.63 9.9C139.33 9.9 140.03 10 140.73 10.1H140.83C140.93 10.1 140.93 10.1 141.03 10.2C141.13 10.2 141.13 10.2 141.23 10.3C145.43 11.5 148.23 15.3 148.23 19.8C148.23 25.3 143.93 29.5 138.53 29.5H104.73C107.53 28.4 110.03 27 112.33 25.3L112.73 25C114.83 23.3 119.73 21.4 122.53 22.3C123.53 22.7 124.03 23.3 124.33 24.3V24.5C124.33 24.7 124.43 24.8 124.43 24.9V25C124.43 25.2 124.43 25.3 124.43 25.5C124.13 26.7 123.13 27.5 121.93 27.5C121.33 27.5 120.83 27.3 120.43 27C121.23 26.7 121.93 25.9 121.93 24.9C121.93 23.7 120.93 22.7 119.73 22.7C118.53 22.7 117.53 23.7 117.53 24.9C117.53 25.2 117.63 25.5 117.73 25.8C118.13 27.8 119.93 29.3 122.03 29.3C124.33 29.3 126.23 27.5 126.33 25.2C128.23 26.8 131.13 28.9 133.63 27.3C133.73 27.3 133.73 27.2 133.73 27.2C133.83 27.2 133.83 27.1 133.93 27C134.73 26.3 135.13 25.4 135.13 24.4C135.13 22.6 133.73 21.2 131.93 21.2C131.23 21.2 130.43 21.6 129.83 22.1L129.73 22.2C129.63 22.3 129.53 22.5 129.43 22.7C129.33 22.9 129.23 23.2 129.23 23.5C129.23 24.6 130.13 25.5 131.23 25.5C132.23 25.5 133.03 24.7 133.23 23.7C133.33 23.9 133.33 24.1 133.33 24.3C133.33 24.8 133.13 25.2 132.83 25.5C131.03 26.8 128.53 24.6 126.43 22.8L126.23 22.6C125.83 22.2 125.33 21.8 124.93 21.5C124.43 21 123.93 20.7 123.13 20.5C121.43 20 119.53 20.2 117.93 20.6C119.23 19.5 120.73 18.1 122.43 16.6C124.83 14.5 127.53 12 129.73 10.3C130.23 10 130.63 9.7 130.63 9.6L130.93 9.3C132.03 8.5 132.93 7.9 133.63 7.6C133.73 7.5 142.43 2 155.03 2H155.43C167.93 2 176.73 7.5 176.73 7.5C177.43 7.8 178.33 8.4 179.43 9.2L179.73 9.5C179.83 9.6 180.13 9.8 180.63 10.2C182.83 12 185.63 14.4 187.93 16.5C189.63 18 191.13 19.4 192.43 20.5C190.93 20.1 188.93 19.9 187.33 20.4C186.63 20.6 186.03 21 185.53 21.4C185.13 21.7 184.63 22 184.23 22.5L184.03 22.6C181.93 24.4 179.33 26.6 177.63 25.3C177.23 25 177.13 24.6 177.13 24.1C177.13 23.9 177.23 23.7 177.23 23.5C177.33 24.5 178.23 25.3 179.23 25.3C180.33 25.3 181.23 24.4 181.23 23.3C181.23 23 181.13 22.7 181.03 22.4C180.93 22.2 180.83 22.1 180.73 21.9L180.63 21.8C180.13 21.3 179.23 20.9 178.53 20.9C176.73 20.9 175.33 22.3 175.33 24C175.33 25 175.73 25.9 176.53 26.6C176.63 26.7 176.63 26.7 176.73 26.8L176.83 26.9C179.33 28.5 182.23 26.4 184.13 24.8C184.23 27.1 186.13 28.9 188.43 28.9C190.53 28.9 192.23 27.4 192.73 25.4C192.83 25.1 192.93 24.8 192.93 24.5C192.93 23.3 191.93 22.3 190.73 22.3C189.53 22.3 188.53 23.3 188.53 24.5C188.53 25.4 189.13 26.3 190.03 26.5C189.63 26.8 189.03 27 188.53 27C187.33 27 186.33 26.2 186.03 25C186.03 24.9 186.03 24.7 186.03 24.5V24.4C186.03 24.2 186.03 24.2 186.13 24V23.8C186.43 22.8 186.93 22.2 187.93 21.8C190.73 20.9 195.63 22.8 197.73 24.5L198.13 24.8C200.43 26.6 202.93 27.9 205.73 29H171.93C166.43 29 162.23 24.7 162.23 19.3C162.23 14.9 165.03 11.1 169.23 9.8C169.33 9.8 169.43 9.8 169.43 9.7C169.53 9.7 169.63 9.7 169.63 9.6H169.73C170.43 9.4 171.13 9.4 171.83 9.4C174.63 9.4 177.03 11.8 177.03 14.6C177.03 17.4 174.63 19.8 171.83 19.8C171.03 19.8 170.23 19.5 169.63 19C171.13 18.9 172.43 17.6 172.43 16C172.43 14.4 171.03 13 169.43 13C167.93 13 166.53 14.2 166.43 15.8V16.2C166.43 19 168.73 21.3 171.53 21.5C171.63 21.5 171.63 21.5 171.73 21.5C175.63 21.5 178.73 18.4 178.73 14.5C178.73 10.6 175.63 7.5 171.73 7.5C170.93 7.5 170.23 7.6 169.43 7.7H169.33C169.33 7.7 169.33 7.7 169.23 7.7C169.13 7.7 169.03 7.7 168.93 7.8H168.83C167.13 8.2 164.03 8.7 161.43 8C159.33 7.5 158.23 6.5 158.13 4.9C158.43 5.6 159.03 6 159.83 6C160.83 6 161.63 5.2 161.63 4.2C161.63 3.7 161.43 3.3 161.13 3C160.73 2.5 160.03 2.2 159.13 2.2C158.43 2.2 157.73 2.5 157.13 3C156.63 3.5 156.33 4.2 156.33 5C156.43 7.5 158.03 9.1 160.93 9.8C161.93 10 163.03 10.1 164.23 10.1C161.63 12.3 160.13 15.4 160.13 18.8C160.13 25.2 165.33 30.4 171.63 30.4H213.53L213.48 28.63ZM169.93 8.2C169.83 8.2 169.83 8.2 169.93 8.2Z" fill="#010101"/>
<path d="M63.1 25.21C62.8 25.51 62.5 25.71 62.2 25.81C61.8 25.91 61.5 26.01 61.1 26.01C60.2 26.01 59.6 25.71 59 25.21L58.9 25.11C57.4 23.41 57.4 20.91 57.6 17.81C57.8 14.31 58 11.01 55.6 8.70997C54.6 7.70997 53.3 7.20997 52 7.30997C53.1 8.40997 53.1 10.31 52 11.41C51.4 12.01 50.7 12.31 49.9 12.31C49.1 12.31 48.4 12.01 47.8 11.41C47.5 11.11 47.3 10.81 47.1 10.51C46.9 10.21 46.8 9.80997 46.8 9.40997C46.8 8.60997 47.1 7.90997 47.7 7.30997C47.9 7.10997 48.2 6.90997 48.5 6.80997C51 5.00997 54.4 5.20997 56.7 7.40997C56.7 7.40997 56.7 7.40997 56.8 7.40997C56.8 7.40997 56.8 7.40997 56.9 7.50997C59.7 10.41 59.5 14.61 59.3 17.91C59.2 19.01 59.2 20.01 59.2 20.81C59.7 20.41 60.3 20.21 61 20.21C61.8 20.21 62.5 20.51 63.1 21.11C64.2 22.21 64.2 24.11 63.1 25.21Z" fill="#010101"/>
<path d="M59 52.51C58.4 53.11 57.8 53.31 57.1 53.31C56.4 53.31 55.8 53.01 55.2 52.51C54.2 51.51 54.2 49.91 55.2 48.91C55.7 48.41 56.4 48.11 57.1 48.11C57.7 48.11 58.3 48.41 58.7 48.81C58.7 48.31 58.6 47.81 58.4 47.31C57.7 45.91 56 44.81 54.2 44.71H54.1C50.7 45.81 46.5 44.91 42.2 42.11C44.9 46.31 45.8 50.41 44.9 53.81C44.8 55.61 45.9 57.61 47.6 58.41C47.8 58.51 48.3 58.71 49 58.81C48.5 58.31 48.2 57.61 48.2 57.01C48.2 56.31 48.5 55.71 49 55.11C50 54.11 51.6 54.11 52.6 55.11C53.1 55.61 53.4 56.31 53.4 57.01C53.4 57.41 53.3 58.31 52.8 58.91C51.6 59.91 50.2 60.51 48.9 60.51C48.2 60.51 47.5 60.31 46.7 60.01C45.3 59.31 44.1 58.11 43.5 56.51C42.2 58.31 40.1 59.51 37.5 60.01H37.3H37.2C36.4 60.01 35.5 59.71 34.9 59.11C34.4 58.61 34 57.81 34 56.91C34 56.11 34.3 55.31 34.9 54.71C36 53.61 38.1 53.61 39.2 54.71C39.8 55.31 40.1 56.21 40.1 57.01C41.4 56.11 42.3 54.91 42.9 53.31C44.3 48.91 41.7 42.91 35.8 37.01L35.3 36.41C35.1 36.21 35 36.01 35 35.81C35 35.61 35.1 35.41 35.3 35.21C35.5 35.01 35.7 34.91 35.9 34.91C36.1 34.91 36.3 35.01 36.5 35.21L37.1 35.71C42.9 41.51 48.8 44.11 53.3 42.91C53.4 42.91 53.4 42.91 53.5 42.81C53.6 42.81 53.7 42.71 53.8 42.71C55.2 42.11 56.4 41.21 57.2 39.91C56.3 40.01 55.4 39.61 54.8 39.01C54.4 38.61 54 37.81 54 37.01C54 36.21 54.3 35.41 54.9 34.81C55.4 34.31 56.2 33.91 57.1 33.91C57.9 33.91 58.7 34.21 59.3 34.81C59.9 35.41 60.3 36.21 60.2 37.01C60.2 37.11 60.2 37.21 60.2 37.41C59.8 39.81 58.6 41.81 56.8 43.21C58.3 43.81 59.5 44.91 60.2 46.31C61 48.61 60.6 50.81 59 52.51Z" fill="#010101"/>
<path d="M93.7 83.11H93.6C93.6 83.91 93.2 84.71 92.6 85.31C92 85.91 91.3 86.21 90.4 86.21C89.5 86.21 88.7 85.91 88 85.21C87.3 84.51 87 83.71 87 82.81C87 81.91 87.3 81.11 87.9 80.51C88.6 79.81 89.7 79.51 90.7 79.61C90.6 79.51 90.5 79.41 90.5 79.31C88.3 77.11 84 77.71 81 80.61L80.9 80.81C79.4 82.31 78.5 84.11 78.3 85.91C78.1 87.61 78.6 89.11 79.6 90.31C79.6 90.21 79.6 90.11 79.6 90.01C79.6 89.11 79.9 88.31 80.6 87.61C81.9 86.31 84 86.31 85.2 87.61C85.9 88.31 86.2 89.11 86.2 90.01C86.2 90.91 85.9 91.81 85.3 92.41C84.7 93.01 83.9 93.41 83.1 93.41H82.7C80.9 93.31 79.3 92.61 78.3 91.51C76.8 90.01 76.2 88.01 76.5 85.71C76.8 83.51 77.9 81.31 79.6 79.61L79.7 79.51C81.4 77.81 83.6 76.61 85.9 76.41C88.2 76.11 90.2 76.81 91.7 78.21C92.8 79.31 93.5 80.91 93.6 82.61L93.7 83.11Z" fill="#010101"/>
<path d="M96.45 29.2C93.07 29.27 90 28.31 87 27.11L86.7 27.01C82.7 25.51 78.7 24.01 74.2 25.51L73.8 25.61C71.9 26.31 70.2 27.81 69.1 29.91C68.5 31.11 68.3 32.51 68.8 34.01C69.2 35.21 70 36.41 71 37.21C72.6 38.41 74.6 38.41 76.3 37.21C76.5 37.11 76.8 36.91 77 36.71C77.7 35.91 78.1 34.91 78.1 34.01C78.1 32.91 77.7 32.01 77 31.21C76.3 30.51 75.4 30.11 74.3 30.01C73.2 30.01 72.2 30.41 71.4 31.11C70.8 31.61 70.5 32.31 70.3 33.01C70.2 32.21 70.3 31.41 70.6 30.81C71.5 29.01 72.8 27.81 74.6 27.21C74.7 27.21 74.8 27.11 74.9 27.11H75C77.4 26.51 80.2 27.11 82.4 28.61C95.9 37.11 91 54.01 88.2 60.81C86.6 64.61 81.1 72.91 77.2 76.71L77.1 76.81C73.4 80.61 65.3 86.21 61.1 87.91C58 89.11 51.9 91.21 45.5 91.11C38.1 91.01 32.5 88.01 28.8 82.31C27.3 80.01 26.8 77.21 27.3 74.81C27.3 74.71 27.4 74.61 27.4 74.51C28 72.81 29.2 71.41 31 70.41C31.9 70.01 32.8 70.01 33.6 70.21C32.7 70.31 31.8 70.61 31.1 71.31C30.4 72.01 30 72.91 29.9 74.01C29.9 75.11 30.3 76.11 31.1 76.91C32 77.61 32.8 78.01 33.8 78.01C34.8 78.01 35.8 77.61 36.5 76.91L36.6 76.81C38.4 75.11 38.6 72.81 37.2 70.91C35.7 68.91 32.5 67.61 30 69.01C27.9 70.11 26.4 71.71 25.7 73.81L25.6 74.11C24.1 78.61 25.6 82.71 27.1 86.61L27.2 86.81C28.3 89.71 28.8 93.14 28.6 96.54V96.94L30.4 96.89V96.59C30.6 93.39 30.3 90.21 29.3 87.31C29.2 86.91 29 86.61 28.9 86.21C28.8 86.01 28.7 85.81 28.6 85.51C31.5 89.01 36.9 93.21 46 93.21C50.8 93.21 56 92.11 61.5 89.81C65.7 88.11 74.2 82.31 78.2 78.31L78.3 78.21C82.2 74.31 88.1 65.81 89.8 61.51C93.6 52.11 94.2 44.01 91.8 37.31C90.2 33.21 87.8 30.41 85.7 28.71C85.8 28.71 85.9 28.81 85.9 28.81L86.4 29.01C87.3 29.31 88.2 29.71 89.1 30.01C90 30.31 90.88 30.44 91.88 30.64C92.88 30.84 93.81 31 94.71 31C94.81 31 96.2 31 96.99 31V29.2H96.45Z" fill="#010101"/>
<path d="M86.6 48.91C86.3 48.01 85.9 47.31 85.4 46.61C85.2 46.41 85.1 46.21 84.9 45.91C83.3 44.31 80.9 44.31 79.4 45.91C77.8 47.51 77.8 49.91 79.4 51.41C80.1 52.11 81.1 52.51 82.2 52.51C83.3 52.51 84.2 52.11 85 51.41C85.1 51.31 85.2 51.21 85.3 51.01C85.5 53.51 84.4 55.61 82.3 57.01C79.1 59.21 74.8 59.21 71.6 56.91C71.1 56.61 70.6 56.21 70.2 55.81C69.9 55.51 69.6 55.31 69.3 55.01C61.3 47.71 64 38.51 66 31.91C66.3 30.91 66.6 29.91 66.8 29.01C67 28.31 67.3 27.61 67.6 26.81C67.7 26.51 67.8 26.31 67.9 26.01C68.5 24.41 69.3 22.41 69.6 20.01C69.8 19.01 72.6 9.21 75.8 5.91C77 4.71 78.6 4.01 80.3 4.01C82 4.01 83.6 4.71 84.8 5.91C86 7.11 86.7 8.71 86.7 10.41C86.7 11.31 86.5 12.21 86.1 13.11C85.6 12.61 84.9 12.41 84.3 12.41C83.8 12.41 83.3 12.71 82.9 13.11C82.1 14.11 82.1 15.41 82.9 16.31C83.3 16.71 83.9 16.91 84.5 16.91C85.1 16.91 85.7 16.61 86.1 16.21C86.2 16.11 86.3 16.01 86.4 15.91C87.8 14.51 88.5 12.51 88.5 10.51C88.5 8.31 87.7 6.31 86.1 4.81C84.5 3.21 82.6 2.41 80.4 2.41C78.2 2.41 76.2 3.21 74.7 4.81C72.6 6.91 70.9 10.91 69.7 14.41C69.6 14.01 69.5 13.51 69.4 13.01C68.7 10.11 66.8 6.91 64.2 4.51C62 2.41 58.5 0.00999757 53.9 -0.190002H53.5C48.8 -0.190002 44.4 1.61 41 5.01C37.7 8.31 35.8 12.81 35.8 17.51C35.8 22.21 37.6 26.71 41 30.01C42.6 31.61 44.7 32.51 47 32.51C49.5 32.51 51.6 31.61 53.1 30.01C53.9 29.21 54.3 28.21 54.3 27.11C54.3 26.01 53.9 25.01 53.1 24.21C52.3 23.41 51.3 23.01 50.2 23.01C49.1 23.01 48.1 23.41 47.3 24.21C46.5 25.01 46.1 26.01 46.1 27.11C46.1 28.21 46.5 29.21 47.3 30.01C47.6 30.31 47.8 30.51 48.1 30.61C45.9 30.91 43.8 30.31 42.2 28.71C36 22.41 36 12.31 42.2 6.11C45.1 3.21 48.9 1.61 53 1.51H53.3C60.8 1.51 66.5 8.41 67.5 13.21C68 15.31 68.1 17.21 67.9 19.21C67.9 19.41 67.8 19.61 67.8 19.61C67.5 21.71 66.8 23.41 66.2 25.11C66.1 25.31 66 25.51 65.9 25.81C65.6 26.71 65.3 27.41 65 28.31C64.8 29.21 64.5 30.11 64.2 31.11L64.1 31.31C62.1 38.11 59 48.41 68 56.51C69.3 58.01 70 59.91 70 61.91C70 64.11 69.1 66.21 67.6 67.71C66 69.31 64 70.11 61.8 70.11C60.7 70.11 59.6 69.91 58.6 69.51C57.6 69.11 56.7 68.51 56 67.81C47.9 59.41 37.8 62.41 31.1 64.41C30.7 64.51 30.3 64.61 30 64.71C29.4 64.91 28.8 65.01 28.3 65.21C27.3 65.51 26.2 65.91 25.1 66.31C23.4 66.91 21.6 67.61 19.6 67.91C19.4 67.91 19.2 68.01 19 68.01C17.1 68.21 15.2 68.11 13.2 67.61C11 67.01 8 65.21 5.9 62.81C4 60.81 1.8 57.61 1.8 53.41C1.8 49.21 3.4 45.21 6.5 42.21C12.6 36.11 22.5 36.01 28.7 41.91L29 42.21C30.5 43.81 31.2 46.01 30.9 48.11C30.7 47.91 30.6 47.61 30.3 47.41C29.5 46.61 28.5 46.21 27.4 46.21C26.3 46.21 25.3 46.61 24.5 47.41C23.7 48.21 23.3 49.21 23.3 50.31C23.3 50.81 23.4 51.41 23.6 51.91C23.8 52.41 24.1 52.81 24.5 53.21C25.3 54.01 26.3 54.41 27.4 54.41C28.5 54.41 29.6 54.01 30.3 53.21C30.6 52.91 30.8 52.71 30.9 52.41C33.5 49.11 33.3 44.41 30.5 41.41L30.6 41.31L30.3 41.01C27 37.71 22.5 35.81 17.8 35.81C13.1 35.81 8.6 37.61 5.3 41.01C1.8 44.31 0 48.61 0 53.41C0 57.11 1.6 60.91 4.5 64.01C7 66.61 10.3 68.61 13.1 69.21C13.6 69.31 14.1 69.41 14.5 69.51C11 70.71 6.9 72.51 4.8 74.51C3.2 76.11 2.4 78.01 2.4 80.21C2.4 82.41 3.2 84.41 4.8 85.91C6.4 87.51 8.3 88.31 10.5 88.31C12.5 88.31 14.6 87.41 16.2 85.91C16.3 85.91 16.3 85.81 16.3 85.81C16.8 85.31 16.8 84.61 16.8 84.21C16.8 83.61 16.6 83.01 16.2 82.61C15.4 81.81 13.8 81.81 13 82.61C12.2 83.61 12.2 84.91 13 85.81C13.1 85.91 13.1 85.91 13.2 86.01C12.4 86.41 11.5 86.61 10.6 86.61C8.9 86.61 7.3 85.91 6.1 84.71C4.9 83.51 4.2 81.91 4.2 80.21C4.2 78.51 4.9 76.91 6.1 75.71C9.4 72.41 19 69.71 20 69.51H20.2C22.3 69.21 24 68.51 25.7 67.91L26.1 67.71C26.9 67.31 27.8 67.01 28.7 66.71L29.1 66.61C30 66.41 30.9 66.11 31.9 65.81H32C35.2 64.81 39.2 63.61 43.2 63.61C48 63.61 51.9 65.31 55.2 68.91C55.5 69.21 55.9 69.61 56 69.91C56.4 70.41 56.8 70.91 57.1 71.31C59.4 74.41 59.4 78.81 57.2 82.01C55.8 84.11 53.7 85.21 51.2 85.01C51.3 84.91 51.5 84.81 51.6 84.71C53.2 83.11 53.2 80.71 51.6 79.21C50 77.61 47.6 77.61 46.1 79.21C44.5 80.81 44.5 83.21 46.1 84.71C46.2 84.81 46.3 84.91 46.4 85.01C47.1 85.71 48 86.21 49 86.51C50 86.71 51 86.81 51.7 86.81C54.6 86.81 57.1 85.51 58.8 83.21C61.2 79.81 61.4 75.21 59.3 71.51C60.3 71.81 61.2 71.91 62.2 71.91C64.9 71.91 67.4 70.91 69.2 69.01C71 67.11 72.1 64.61 72.1 62.01C72.1 61.01 72 60.01 71.7 59.11C73.3 60.01 75.1 60.51 77 60.51C79.4 60.51 81.5 59.81 83.2 58.51C86.3 56.41 87.6 52.81 86.6 48.91Z" fill="#010101"/>
<path d="M20.3 60.81C20.3 60.21 20.5 59.61 20.9 59.11C20 59.11 19 59.11 18 59.21H17.8C14.3 59.41 10.3 59.61 7.5 56.71C5 54.21 5 50.21 7.5 47.61L7.8 47.31L7.9 47.41C9 46.61 10.6 46.71 11.7 47.71C12 48.01 12.2 48.31 12.4 48.61C12.6 49.01 12.7 49.31 12.7 49.71C12.7 50.51 12.4 51.21 11.8 51.81C11.3 52.31 10.5 52.61 9.7 52.61C8.9 52.61 8.1 52.31 7.6 51.81L7.5 51.71C7.4 53.11 7.8 54.41 8.9 55.41C11.3 57.81 14.7 57.61 18 57.41C20.5 57.21 22.7 57.11 24.3 58.01C24.7 58.11 25.1 58.41 25.4 58.71C26 59.31 26.3 60.01 26.3 60.81C26.3 61.61 26 62.31 25.4 62.91C24.9 63.51 24.2 63.81 23.3 63.81C22.5 63.81 21.8 63.51 21.2 62.91C20.7 62.21 20.3 61.51 20.3 60.81Z" fill="#010101"/>
<path d="M9 8.70999C17.3 17.01 24 17.01 32.3 8.70999C23.9 17.01 23.9 23.71 32.3 32.01C23.9 23.61 17.3 23.61 9 32.01C17.3 23.71 17.3 17.01 9 8.70999Z" fill="#010101"/>
<path d="M285.6 63.1C285.3 62.8 285.1 62.5 285 62.2C284.9 61.8 284.8 61.5 284.8 61.1C284.8 60.2 285.1 59.6 285.6 59L285.7 58.9C287.4 57.4 289.9 57.4 293 57.6C296.5 57.8 299.8 58 302.1 55.6C303.1 54.6 303.6 53.3 303.5 52C302.4 53.1 300.5 53.1 299.4 52C298.8 51.4 298.5 50.7 298.5 49.9C298.5 49.1 298.8 48.4 299.4 47.8C299.7 47.5 300 47.3 300.3 47.1C300.6 46.9 301 46.8 301.4 46.8C302.2 46.8 302.9 47.1 303.5 47.7C303.7 47.9 303.9 48.2 304 48.5C305.8 51 305.6 54.4 303.4 56.7C303.4 56.7 303.4 56.7 303.4 56.8C303.4 56.8 303.4 56.8 303.3 56.9C300.4 59.7 296.2 59.5 292.9 59.3C291.8 59.2 290.8 59.2 290 59.2C290.4 59.7 290.6 60.3 290.6 61C290.6 61.8 290.3 62.5 289.7 63.1C288.6 64.2 286.7 64.2 285.6 63.1Z" fill="#010101"/>
<path d="M258.3 59C257.7 58.4 257.5 57.8 257.5 57.1C257.5 56.4 257.8 55.8 258.3 55.2C259.3 54.2 260.9 54.2 261.9 55.2C262.4 55.7 262.7 56.4 262.7 57.1C262.7 57.7 262.4 58.3 262 58.7C262.5 58.7 263 58.6 263.5 58.4C264.9 57.7 266 56 266.1 54.2V54.1C265 50.7 265.9 46.5 268.7 42.2C264.5 44.9 260.4 45.8 257 44.9C255.2 44.8 253.2 45.9 252.4 47.6C252.3 47.8 252.1 48.3 252 49C252.5 48.5 253.2 48.2 253.8 48.2C254.5 48.2 255.1 48.5 255.7 49C256.7 50 256.7 51.6 255.7 52.6C255.2 53.1 254.5 53.4 253.8 53.4C253.4 53.4 252.5 53.3 251.9 52.8C250.9 51.6 250.3 50.2 250.3 48.9C250.3 48.2 250.5 47.5 250.8 46.7C251.5 45.3 252.7 44.1 254.3 43.5C252.5 42.2 251.3 40.1 250.8 37.5V37.3V37.2C250.8 36.4 251.1 35.5 251.7 34.9C252.2 34.4 253 34 253.9 34C254.7 34 255.5 34.3 256.1 34.9C257.2 36 257.2 38.1 256.1 39.2C255.5 39.8 254.6 40.1 253.8 40.1C254.7 41.4 255.9 42.3 257.5 42.9C261.9 44.3 267.9 41.7 273.8 35.8L274.4 35.3C274.6 35.1 274.8 35 275 35C275.2 35 275.4 35.1 275.6 35.3C275.8 35.5 275.9 35.7 275.9 35.9C275.9 36.1 275.8 36.3 275.6 36.5L275.1 37.1C269.3 42.9 266.7 48.8 267.9 53.3C267.9 53.4 267.9 53.4 268 53.5C268 53.6 268.1 53.7 268.1 53.8C268.7 55.2 269.6 56.4 270.9 57.2C270.8 56.3 271.2 55.4 271.8 54.8C272.2 54.4 273 54 273.8 54C274.6 54 275.4 54.3 276 54.9C276.5 55.4 276.9 56.2 276.9 57.1C276.9 57.9 276.6 58.7 276 59.3C275.4 59.9 274.6 60.3 273.8 60.2C273.7 60.2 273.6 60.2 273.4 60.2C271 59.8 269 58.6 267.6 56.8C267 58.3 265.9 59.5 264.5 60.2C262.2 61 260 60.6 258.3 59Z" fill="#010101"/>
<path d="M227.7 93.7V93.6C226.9 93.6 226.1 93.2 225.5 92.6C224.9 92 224.6 91.3 224.6 90.4C224.6 89.5 224.9 88.7 225.6 88C226.3 87.3 227.1 87 228 87C228.9 87 229.7 87.3 230.3 87.9C231 88.6 231.3 89.7 231.2 90.7C231.3 90.6 231.4 90.5 231.5 90.5C233.7 88.3 233.1 84 230.2 81L230 80.9C228.5 79.4 226.7 78.5 224.9 78.3C223.2 78.1 221.7 78.6 220.5 79.6C220.6 79.6 220.7 79.6 220.8 79.6C221.7 79.6 222.5 79.9 223.2 80.6C224.5 81.9 224.5 84 223.2 85.2C222.5 85.9 221.7 86.2 220.8 86.2C219.9 86.2 219 85.9 218.4 85.3C217.8 84.7 217.4 83.9 217.4 83.1V82.7C217.5 80.9 218.2 79.3 219.3 78.3C220.8 76.8 222.8 76.2 225.1 76.5C227.3 76.8 229.5 77.9 231.2 79.6L231.3 79.7C233 81.4 234.2 83.6 234.4 85.9C234.7 88.2 234 90.2 232.6 91.7C231.5 92.8 229.9 93.5 228.2 93.6L227.7 93.7Z" fill="#010101"/>
<path d="M281.61 96.37C281.54 92.99 282.5 90 283.7 87L283.8 86.7C285.3 82.7 286.8 78.7 285.3 74.2L285.2 73.8C284.5 71.9 283 70.2 280.9 69.1C279.7 68.5 278.3 68.3 276.8 68.8C275.6 69.2 274.4 70 273.6 71C272.4 72.6 272.4 74.6 273.6 76.3C273.7 76.5 273.9 76.8 274.1 77C274.9 77.7 275.9 78.1 276.8 78.1C277.9 78.1 278.8 77.7 279.6 77C280.3 76.3 280.7 75.4 280.8 74.3C280.8 73.2 280.4 72.2 279.7 71.4C279.2 70.8 278.5 70.5 277.8 70.3C278.6 70.2 279.4 70.3 280 70.6C281.8 71.5 283 72.8 283.6 74.6C283.6 74.7 283.7 74.8 283.7 74.9V75C284.3 77.4 283.7 80.2 282.2 82.4C273.7 95.9 256.8 91 250 88.2C246.2 86.6 237.9 81.1 234.1 77.2L234 77.1C230.2 73.4 224.6 65.3 222.9 61.1C221.7 58 219.6 51.9 219.7 45.5C219.8 38.1 222.8 32.5 228.5 28.8C230.8 27.3 233.6 26.8 236 27.3C236.1 27.3 236.2 27.4 236.3 27.4C238 28 239.4 29.2 240.4 31C240.8 31.9 240.8 32.8 240.6 33.6C240.5 32.7 240.2 31.8 239.5 31.1C238.8 30.4 237.9 30 236.8 29.9C235.7 29.9 234.7 30.3 233.9 31.1C233.2 32 232.8 32.8 232.8 33.8C232.8 34.8 233.2 35.8 233.9 36.5L234 36.6C235.7 38.4 238 38.6 239.9 37.2C241.9 35.7 243.2 32.5 241.8 30C240.7 27.9 239.1 26.4 237 25.7L236.7 25.6C232.2 24.1 228.1 25.6 224.2 27.1L224 27.2C221.1 28.3 217.27 28.83 213.87 28.63H213.47L213.52 30.4H213.82C217.02 30.6 220.6 30.3 223.5 29.3C223.9 29.2 224.2 29 224.6 28.9C224.8 28.8 225 28.7 225.3 28.6C221.8 31.5 217.6 36.9 217.6 46C217.6 50.8 218.7 56 221 61.5C222.7 65.7 228.5 74.2 232.5 78.2L232.6 78.3C236.5 82.2 245 88.1 249.3 89.8C258.7 93.6 266.8 94.2 273.5 91.8C277.6 90.2 280.4 87.8 282.1 85.7C282.1 85.8 282 85.9 282 85.9L281.8 86.4C281.5 87.3 281.1 88.2 280.8 89.1C280.5 90 280.37 90.88 280.17 91.88C279.97 92.88 279.9 93.84 279.9 94.74C279.9 94.84 279.9 96.12 279.9 96.91H281.61V96.37Z" fill="#010101"/>
<path d="M261.9 86.6C262.8 86.3 263.5 85.9 264.2 85.4C264.4 85.2 264.6 85.1 264.9 84.9C266.5 83.3 266.5 80.9 264.9 79.4C263.3 77.8 260.9 77.8 259.4 79.4C258.7 80.1 258.3 81.1 258.3 82.2C258.3 83.3 258.7 84.2 259.4 85C259.5 85.1 259.6 85.2 259.8 85.3C257.3 85.5 255.2 84.4 253.8 82.3C251.6 79.1 251.6 74.8 253.9 71.6C254.2 71.1 254.6 70.6 255 70.2C255.3 69.9 255.5 69.6 255.8 69.3C263.1 61.3 272.3 64 278.9 66C279.9 66.3 280.9 66.6 281.8 66.8C282.5 67 283.2 67.3 284 67.6C284.3 67.7 284.5 67.8 284.8 67.9C286.4 68.5 288.4 69.3 290.8 69.6C291.8 69.8 301.6 72.6 304.9 75.8C306.1 77 306.8 78.6 306.8 80.3C306.8 82 306.1 83.6 304.9 84.8C303.7 86 302.1 86.7 300.4 86.7C299.5 86.7 298.6 86.5 297.7 86.1C298.2 85.6 298.4 84.9 298.4 84.3C298.4 83.8 298.1 83.3 297.7 82.9C296.7 82.1 295.4 82.1 294.5 82.9C294.1 83.3 293.9 83.9 293.9 84.5C293.9 85.1 294.2 85.7 294.6 86.1C294.7 86.2 294.8 86.3 294.9 86.4C296.3 87.8 298.3 88.5 300.3 88.5C302.5 88.5 304.5 87.7 306 86.1C307.6 84.5 308.4 82.6 308.4 80.4C308.4 78.2 307.6 76.2 306 74.7C303.9 72.6 299.9 70.9 296.4 69.7C296.8 69.6 297.3 69.5 297.8 69.4C300.7 68.7 303.9 66.8 306.3 64.2C308.4 62 310.8 58.5 311 53.9V53.5C311 48.8 309.2 44.4 305.8 41C302.5 37.7 298 35.8 293.3 35.8C288.6 35.8 284.1 37.6 280.8 41C279.2 42.6 278.3 44.7 278.3 47C278.3 49.5 279.2 51.6 280.8 53.1C281.6 53.9 282.6 54.3 283.7 54.3C284.8 54.3 285.8 53.9 286.6 53.1C287.4 52.3 287.8 51.3 287.8 50.2C287.8 49.1 287.4 48.1 286.6 47.3C285.8 46.5 284.8 46.1 283.7 46.1C282.6 46.1 281.6 46.5 280.8 47.3C280.5 47.6 280.3 47.8 280.2 48.1C279.9 45.9 280.5 43.8 282.1 42.2C288.4 36 298.5 36 304.7 42.2C307.6 45.1 309.2 48.9 309.3 53V53.3C309.3 60.8 302.4 66.5 297.6 67.5C295.5 68 293.6 68.1 291.6 67.9C291.4 67.9 291.2 67.8 291.2 67.8C289.1 67.5 287.4 66.8 285.7 66.2C285.5 66.1 285.3 66 285 65.9C284.1 65.6 283.4 65.3 282.5 65C281.6 64.8 280.7 64.5 279.7 64.2L279.5 64.1C272.7 62.1 262.4 59 254.3 68C252.8 69.3 250.9 70 248.9 70C246.7 70 244.6 69.1 243.1 67.6C241.5 66 240.7 64 240.7 61.8C240.7 60.7 240.9 59.6 241.3 58.6C241.7 57.6 242.3 56.7 243 56C251.4 47.9 248.4 37.8 246.4 31.1C246.3 30.7 246.2 30.3 246.1 30C245.9 29.4 245.8 28.8 245.6 28.3C245.3 27.3 244.9 26.2 244.5 25.1C243.9 23.4 243.2 21.6 242.9 19.6C242.9 19.4 242.8 19.2 242.8 19C242.6 17.1 242.7 15.2 243.2 13.2C243.8 11 245.6 8 248 5.9C250 4 253.2 1.8 257.4 1.8C261.6 1.8 265.6 3.4 268.6 6.5C274.7 12.6 274.8 22.5 268.9 28.7L268.6 29C267 30.5 264.8 31.2 262.7 30.9C262.9 30.7 263.2 30.6 263.4 30.3C264.2 29.5 264.6 28.5 264.6 27.4C264.6 26.3 264.2 25.3 263.4 24.5C262.6 23.7 261.6 23.3 260.5 23.3C260 23.3 259.4 23.4 258.9 23.6C258.4 23.8 258 24.1 257.6 24.5C256.8 25.3 256.4 26.3 256.4 27.4C256.4 28.5 256.8 29.6 257.6 30.3C257.9 30.6 258.1 30.8 258.4 30.9C261.7 33.5 266.4 33.3 269.4 30.5L269.5 30.6L269.8 30.3C273.1 27 275 22.5 275 17.8C275 13.1 273.2 8.6 269.8 5.3C266.5 1.8 262.2 0 257.4 0C253.7 0 249.9 1.6 246.8 4.5C244.2 7 242.2 10.3 241.6 13.1C241.5 13.6 241.4 14.1 241.3 14.5C240.1 11 238.3 6.9 236.3 4.8C234.7 3.2 232.8 2.4 230.6 2.4C228.4 2.4 226.4 3.2 224.9 4.8C223.3 6.4 222.5 8.3 222.5 10.5C222.5 12.5 223.4 14.6 224.9 16.2C224.9 16.3 225 16.3 225 16.3C225.5 16.8 226.2 16.8 226.6 16.8C227.2 16.8 227.8 16.6 228.2 16.2C229 15.4 229 13.8 228.2 13C227.2 12.2 225.9 12.2 225 13C224.9 13.1 224.9 13.1 224.8 13.2C224.4 12.4 224.2 11.5 224.2 10.6C224.2 8.9 224.9 7.3 226.1 6.1C227.3 4.9 228.9 4.2 230.6 4.2C232.3 4.2 233.9 4.9 235.1 6.1C238.4 9.4 241.1 19 241.3 20V20.2C241.6 22.3 242.3 24 242.9 25.7L243.1 26.1C243.5 26.9 243.8 27.8 244.1 28.7L244.2 29.1C244.4 30 244.7 30.9 245 31.9V32C246 35.2 247.2 39.2 247.2 43.2C247.2 48 245.5 51.9 241.9 55.2C241.6 55.5 241.2 55.9 240.9 56C240.4 56.4 239.9 56.8 239.5 57.1C236.4 59.4 232 59.4 228.8 57.2C226.7 55.8 225.6 53.7 225.8 51.2C225.9 51.3 226 51.5 226.1 51.6C227.7 53.2 230.1 53.2 231.6 51.6C233.2 50 233.2 47.6 231.6 46.1C230 44.5 227.6 44.5 226.1 46.1C226 46.2 225.9 46.3 225.8 46.4C225.1 47.1 224.6 48 224.3 49C224.1 50 224 51 224 51.7C224 54.6 225.3 57.1 227.6 58.8C231 61.2 235.6 61.4 239.3 59.3C239 60.3 238.9 61.2 238.9 62.2C238.9 64.9 239.9 67.4 241.8 69.2C243.7 71 246.2 72.1 248.8 72.1C249.8 72.1 250.8 72 251.7 71.7C250.8 73.3 250.3 75.1 250.3 77C250.3 79.4 251 81.5 252.3 83.2C254.4 86.3 258 87.6 261.9 86.6Z" fill="#010101"/>
<path d="M250 20.3C250.6 20.3 251.2 20.5 251.7 20.9C251.7 20 251.7 19 251.6 18V17.8C251.4 14.3 251.2 10.3 254.1 7.5C256.6 5 260.6 5 263.2 7.5L263.5 7.8L263.4 7.9C264.2 9 264.1 10.6 263.1 11.7C262.8 12 262.5 12.2 262.2 12.4C261.8 12.6 261.5 12.7 261.1 12.7C260.3 12.7 259.6 12.4 259 11.8C258.5 11.3 258.2 10.5 258.2 9.7C258.2 8.9 258.5 8.1 259 7.6L259.1 7.5C257.7 7.4 256.4 7.8 255.4 8.9C253 11.3 253.2 14.7 253.4 18C253.6 20.5 253.7 22.7 252.8 24.3C252.7 24.7 252.4 25.1 252.1 25.4C251.5 26 250.8 26.3 250 26.3C249.2 26.3 248.5 26 247.9 25.4C247.3 24.9 247 24.2 247 23.3C247 22.5 247.3 21.8 247.9 21.2C248.6 20.7 249.3 20.3 250 20.3Z" fill="#010101"/>
<path d="M302.1 9C293.8 17.3 293.8 24 302.1 32.3C293.8 23.9 287.1 23.9 278.8 32.3C287.2 23.9 287.2 17.3 278.8 9C287.1 17.3 293.8 17.3 302.1 9Z" fill="#010101"/>
<path d="M311 111.51V111.11C311 110.91 311 110.71 311 110.51C310.9 102.31 308.4 98.11 303.7 97.91H303.3C302.5 98.01 302 98.71 302 99.51C302 100.51 302.8 101.11 303.6 101.11C304.3 101.11 304.9 100.71 305.1 100.01C307 100.71 308.2 102.71 308.8 106.11C307 104.01 304.5 102.91 301.8 102.91C296.8 102.91 292.8 106.81 292.5 111.81V112.61C292.6 114.41 293.3 116.01 294.6 117.11C295.8 118.31 297.5 119.01 299.3 119.01C301 119.01 302.5 118.41 303.8 117.31C304.7 116.71 305.2 115.71 305.2 114.71C305.2 112.91 303.8 111.51 302 111.51C300.2 111.51 298.8 112.91 298.8 114.71C298.8 115.71 299.3 116.61 300 117.21C299.7 117.21 299.5 117.31 299.2 117.31C296.4 117.31 294.2 115.11 294.2 112.41V112.31C294.2 108.21 297.6 104.81 301.7 104.81C305.7 104.81 309.1 108.11 309.2 112.11V142.31C307.5 136.61 305.3 133.11 305.1 132.71C304.7 131.91 304.1 131.01 303.2 129.81L303 129.51C303 129.51 300.8 126.81 301.2 124.71C301.3 124.01 301.7 123.51 302.4 123.21C302.3 123.41 302.3 123.71 302.3 123.91C302.3 125.11 303.3 126.21 304.6 126.21C305.8 126.21 306.8 125.21 306.8 123.91C306.8 123.61 306.7 123.31 306.6 123.01L306.4 122.61C306.1 122.11 305.5 121.61 304.6 121.21C303.6 120.91 302.5 121.01 301.6 121.51C300.4 122.21 299.6 123.11 299.4 124.31C299.4 124.61 299.3 124.81 299.3 125.11C298.7 124.41 298.1 123.71 297.4 123.01C296.9 122.41 296.4 121.81 295.8 121.21C295.3 120.61 294.7 120.01 294.1 119.31C291.8 116.71 289.5 114.11 287.6 111.61C282 104.51 281.61 97.1 281.61 97.1V96.7L279.9 96.71V138.61C279.9 144.91 285.1 150.11 291.5 150.11C294.9 150.11 298.1 148.61 300.2 146.01C300.2 147.21 300.3 148.31 300.5 149.21C301.2 152.21 302.8 153.71 305.3 153.81C306.1 153.81 306.7 153.51 307.3 153.01C307.8 152.51 308.1 151.81 308.1 151.01C308.1 150.11 307.8 149.51 307.3 149.01C307 148.71 306.5 148.51 306.1 148.51C305.1 148.51 304.3 149.31 304.3 150.31C304.3 151.11 304.8 151.71 305.4 152.01C303.9 151.91 302.8 150.81 302.3 148.71C301.7 146.21 302.2 143.01 302.5 141.31V141.21C302.5 141.01 302.6 140.91 302.6 140.91C302.6 140.91 302.6 140.91 302.6 140.81V140.71C302.8 139.91 302.8 139.11 302.8 138.41C302.8 134.51 299.7 131.41 295.8 131.41C291.9 131.41 288.8 134.51 288.8 138.41C288.8 138.41 288.8 138.51 288.8 138.61C289 141.51 291.3 143.71 294.1 143.71H294.5C296 143.61 297.3 142.31 297.3 140.81C297.3 139.21 295.9 137.81 294.3 137.81C292.8 137.81 291.4 139.11 291.3 140.61C290.8 140.01 290.5 139.21 290.5 138.41C290.5 135.61 292.9 133.21 295.7 133.21C298.5 133.21 300.9 135.61 300.9 138.41C300.9 139.11 300.8 139.81 300.7 140.51V140.61C300.7 140.71 300.7 140.71 300.6 140.81C300.6 140.91 300.6 140.91 300.5 141.01C299.3 145.21 295.5 148.01 291 148.01C285.5 148.01 281.3 143.71 281.3 138.31V104.51C282.4 107.31 283.8 109.81 285.5 112.11L285.8 112.51C287.5 114.61 289.4 119.51 288.5 122.31C288.1 123.31 287.5 123.81 286.5 124.11H286.3C286.1 124.11 286 124.21 285.9 124.21H285.8C285.6 124.21 285.5 124.21 285.3 124.21C284.1 123.91 283.3 122.91 283.3 121.71C283.3 121.11 283.5 120.61 283.8 120.21C284.1 121.01 284.9 121.71 285.8 121.71C287 121.71 288 120.71 288 119.51C288 118.31 287 117.31 285.8 117.31C285.5 117.31 285.2 117.41 284.9 117.51C282.9 117.91 281.4 119.71 281.4 121.81C281.4 124.11 283.2 126.01 285.5 126.21C283.9 128.01 281.8 131.01 283.4 133.51C283.4 133.61 283.5 133.61 283.5 133.61C283.5 133.71 283.6 133.71 283.7 133.81C284.4 134.61 285.3 135.01 286.3 135.01C288.1 135.01 289.5 133.61 289.5 131.81C289.5 131.11 289.1 130.31 288.6 129.71L288.5 129.61C288.3 129.51 288.2 129.41 288 129.31C287.8 129.21 287.5 129.11 287.2 129.11C286.1 129.11 285.2 130.01 285.2 131.11C285.2 132.11 286 133.01 287 133.11C286.8 133.21 286.6 133.21 286.4 133.21C285.9 133.21 285.5 133.01 285.2 132.71C283.9 130.91 286.1 128.41 287.9 126.31L288 126.11C288.4 125.61 288.8 125.21 289.1 124.81C289.6 124.31 289.9 123.81 290.1 123.01C290.6 121.31 290.4 119.41 290 117.81C291.2 119.11 292.5 120.61 294 122.31C296.1 124.71 298.6 127.41 300.3 129.61C300.6 130.11 300.9 130.51 301 130.51L301.3 130.81C302.1 131.91 302.7 132.81 303 133.51C303.1 133.61 308.6 142.41 308.6 154.91V155.31C308.6 167.81 303.1 176.61 303.1 176.61C302.7 177.31 302.2 178.21 301.4 179.31L301.1 179.61C301 179.71 300.8 180.01 300.4 180.61C298.6 182.81 296.2 185.61 294.1 187.91C292.5 189.61 291.2 191.11 290.1 192.41C290.5 190.91 290.7 188.91 290.2 187.31C290 186.61 289.6 186.01 289.2 185.51C288.9 185.11 288.6 184.61 288.1 184.21L288 184.01C286.2 181.91 284 179.31 285.3 177.61C285.6 177.21 286 177.11 286.5 177.11C286.7 177.11 286.9 177.21 287.1 177.21C286.1 177.31 285.3 178.21 285.3 179.21C285.3 180.31 286.2 181.21 287.3 181.21C287.6 181.21 287.9 181.11 288.1 181.01C288.3 180.91 288.4 180.81 288.6 180.71L288.7 180.61C289.2 180.11 289.6 179.21 289.6 178.51C289.6 176.71 288.2 175.31 286.4 175.31C285.4 175.31 284.5 175.71 283.8 176.51C283.7 176.61 283.7 176.61 283.6 176.71L283.5 176.81C281.9 179.31 284 182.21 285.6 184.11C283.3 184.21 281.5 186.11 281.5 188.41C281.5 190.51 283 192.21 285 192.71C285.3 192.81 285.6 192.91 285.9 192.91C287.1 192.91 288.1 191.91 288.1 190.71C288.1 189.51 287.1 188.51 285.9 188.51C285 188.51 284.1 189.11 283.9 190.01C283.6 189.61 283.4 189.01 283.4 188.41C283.4 187.21 284.2 186.21 285.4 185.91C285.5 185.91 285.7 185.91 285.9 185.91H286C286.2 185.91 286.2 185.91 286.4 186.01H286.6C287.6 186.31 288.2 186.81 288.6 187.81C289.5 190.61 287.6 195.51 285.9 197.61L285.6 198.01C283.8 200.31 282.5 202.81 281.4 205.61V171.81C281.4 166.31 285.7 162.11 291.1 162.11C295.5 162.11 299.3 164.91 300.5 169.11C300.5 169.21 300.5 169.31 300.6 169.31C300.6 169.41 300.6 169.51 300.7 169.51V169.61C300.9 170.31 300.9 171.01 300.9 171.71C300.9 174.51 298.5 176.91 295.7 176.91C292.9 176.91 290.5 174.51 290.5 171.71C290.5 170.91 290.8 170.11 291.3 169.51C291.4 171.01 292.7 172.31 294.3 172.31C295.9 172.31 297.3 170.91 297.3 169.41C297.3 167.81 296.1 166.51 294.5 166.41H294.1C291.3 166.41 289 168.61 288.8 171.51C288.8 171.61 288.8 171.61 288.8 171.71C288.8 175.61 291.9 178.71 295.8 178.71C299.7 178.71 302.8 175.61 302.8 171.71C302.8 170.91 302.7 170.21 302.6 169.41V169.31C302.6 169.31 302.6 169.31 302.6 169.21C302.6 169.11 302.6 169.01 302.5 168.91V168.81C302.1 167.11 301.6 164.01 302.3 161.41C302.8 159.31 303.8 158.21 305.4 158.11C304.7 158.41 304.3 159.01 304.3 159.81C304.3 160.81 305.1 161.61 306.1 161.61C306.6 161.61 307 161.41 307.3 161.11C307.8 160.71 308.1 160.01 308.1 159.11C308.1 158.41 307.8 157.71 307.3 157.21C306.8 156.71 306.1 156.41 305.3 156.41C302.8 156.51 301.2 158.11 300.5 161.01C300.3 162.01 300.2 163.11 300.2 164.31C298 161.71 294.9 160.21 291.5 160.21C285.1 160.21 279.9 165.41 279.9 171.71V213.61H281.7V213.21C281.7 213.11 282 205.61 287.6 198.61C289.5 196.11 291.8 193.51 294.1 190.91C294.6 190.31 295.2 189.71 295.8 189.01C296.3 188.41 296.9 187.81 297.4 187.21C298 186.41 298.7 185.71 299.3 185.01C299.3 185.31 299.3 185.51 299.4 185.81C299.6 187.01 300.4 188.01 301.6 188.61C302.5 189.21 303.6 189.31 304.6 188.91C305.5 188.51 306.1 188.11 306.4 187.61L306.6 187.21C306.7 186.91 306.8 186.61 306.8 186.31C306.8 185.01 305.8 184.01 304.6 184.01C303.4 184.01 302.3 185.01 302.3 186.31C302.3 186.51 302.3 186.81 302.4 187.01C301.7 186.71 301.3 186.11 301.2 185.51C300.8 183.51 303 180.71 303 180.71L303.2 180.41C304.1 179.21 304.7 178.31 305.1 177.51C305.3 177.21 307.5 173.61 309.2 167.91V198.21C309.1 202.21 305.7 205.51 301.7 205.51C297.6 205.51 294.2 202.11 294.2 198.01V197.91C294.2 195.11 296.5 193.01 299.2 193.01C299.5 193.01 299.7 193.01 300 193.11C299.2 193.71 298.8 194.61 298.8 195.61C298.8 197.41 300.2 198.81 302 198.81C303.8 198.81 305.2 197.41 305.2 195.61C305.2 194.61 304.7 193.61 303.8 193.01C302.6 191.91 301 191.31 299.3 191.31C295.6 191.31 292.6 194.11 292.5 197.71V198.51C292.7 203.41 296.8 207.41 301.8 207.41C304.5 207.41 307 206.31 308.8 204.21C308.2 207.51 307 209.61 305.1 210.31C304.9 209.61 304.3 209.21 303.6 209.21C302.8 209.21 302 209.81 302 210.81C302 211.61 302.5 212.21 303.3 212.41H303.7C308.4 212.21 310.8 207.91 311 199.81C311 199.61 311 199.41 311 199.21V198.81V111.51Z" fill="#010101"/>
<path d="M189.43 296C190.03 295.5 190.63 294.9 191.33 294.4C193.83 292.1 196.53 289.8 199.03 287.9C206.13 282.3 213.63 282 213.63 282H214.1L214.07 280.1H172.03C165.63 280.1 160.53 285.3 160.53 291.7C160.53 295.1 162.03 298.3 164.63 300.4C163.43 300.4 162.33 300.5 161.33 300.7C158.33 301.4 156.83 303.1 156.73 305.5C156.73 306.3 157.03 307 157.53 307.5C158.03 308 158.73 308.3 159.53 308.3C160.43 308.3 161.03 308 161.53 307.5C161.83 307.2 162.03 306.7 162.03 306.3C162.03 305.3 161.23 304.5 160.23 304.5C159.43 304.5 158.83 305 158.53 305.6C158.63 304.1 159.73 303.1 161.83 302.5C164.33 301.8 167.53 302.4 169.23 302.7H169.33C169.53 302.7 169.63 302.8 169.63 302.8C169.63 302.8 169.63 302.8 169.73 302.8H169.83C170.63 303 171.33 303 172.13 303C176.03 303 179.13 299.9 179.13 296C179.13 292.1 176.03 289 172.13 289C172.13 289 172.03 289 171.93 289C169.03 289.2 166.83 291.5 166.83 294.3V294.7C166.93 296.2 168.23 297.5 169.83 297.5C171.43 297.5 172.83 296.1 172.83 294.5C172.83 293 171.53 291.6 170.03 291.5C170.63 291 171.43 290.7 172.23 290.7C175.03 290.7 177.43 293.1 177.43 295.9C177.43 298.7 175.03 301.1 172.23 301.1C171.53 301.1 170.83 301 170.13 300.9H170.03C169.93 300.9 169.93 300.9 169.83 300.8C169.73 300.8 169.73 300.8 169.63 300.7C165.43 299.5 162.63 295.7 162.63 291.2C162.63 285.7 166.93 281.5 172.33 281.5H205.93C203.13 282.6 200.63 284 198.33 285.7L197.93 286C195.83 287.7 190.93 289.6 188.13 288.7C187.13 288.3 186.63 287.7 186.33 286.7V286.5C186.33 286.3 186.23 286.2 186.23 286.1V286C186.23 285.8 186.23 285.6 186.23 285.5C186.53 284.3 187.53 283.5 188.73 283.5C189.33 283.5 189.83 283.7 190.23 284C189.43 284.3 188.73 285.1 188.73 286C188.73 287.2 189.73 288.2 190.93 288.2C192.13 288.2 193.13 287.2 193.13 286C193.13 285.7 193.03 285.4 192.93 285.1C192.53 283.1 190.73 281.6 188.63 281.6C186.33 281.6 184.43 283.4 184.33 285.7C182.53 284.1 179.53 282 177.03 283.6C176.93 283.6 176.93 283.7 176.93 283.7C176.83 283.7 176.83 283.8 176.73 283.9C175.93 284.6 175.53 285.5 175.53 286.5C175.53 288.3 176.93 289.7 178.73 289.7C179.43 289.7 180.23 289.3 180.83 288.8L180.93 288.7C181.03 288.6 181.13 288.4 181.23 288.2C181.33 288 181.43 287.7 181.43 287.4C181.43 286.3 180.53 285.4 179.43 285.4C178.43 285.4 177.53 286.2 177.43 287.2C177.33 287 177.33 286.8 177.33 286.6C177.33 286.1 177.53 285.7 177.83 285.4C179.63 284.1 182.13 286.3 184.23 288.1L184.43 288.2C184.83 288.6 185.33 289 185.73 289.3C186.23 289.8 186.73 290.1 187.53 290.3C189.23 290.8 191.13 290.6 192.63 290.2C191.33 291.3 189.83 292.7 188.13 294.2C185.73 296.3 183.03 298.8 180.83 300.5C180.33 300.8 179.93 301.1 179.83 301.2L179.53 301.5C178.43 302.3 177.53 302.9 176.83 303.2C176.73 303.3 167.93 308.8 155.43 308.8H155.03C142.53 308.8 133.73 303.3 133.73 303.3C133.03 303 132.13 302.4 131.03 301.6L130.73 301.3C130.63 301.2 130.33 301 129.83 300.6C127.63 298.8 124.83 296.4 122.53 294.3C120.83 292.8 119.33 291.5 118.03 290.3C119.53 290.7 121.53 290.9 123.23 290.4C123.93 290.2 124.53 289.8 125.03 289.4C125.43 289.1 125.93 288.8 126.33 288.3L126.53 288.2C128.63 286.4 131.23 284.2 132.93 285.5C133.33 285.8 133.43 286.2 133.43 286.7C133.43 286.9 133.33 287.1 133.23 287.3C133.13 286.3 132.23 285.5 131.23 285.5C130.13 285.5 129.23 286.4 129.23 287.5C129.23 287.8 129.33 288.1 129.43 288.4C129.53 288.6 129.63 288.7 129.73 288.9L129.83 289C130.33 289.5 131.23 289.9 131.93 289.9C133.73 289.9 135.13 288.5 135.13 286.7C135.13 285.7 134.73 284.8 133.93 284.1C133.83 284 133.83 284 133.73 283.9L133.63 283.8C131.13 282.2 128.23 284.3 126.33 285.9C126.23 283.6 124.33 281.8 121.93 281.8C119.83 281.8 118.13 283.3 117.63 285.3C117.53 285.6 117.43 285.9 117.43 286.2C117.43 287.4 118.43 288.4 119.63 288.4C120.83 288.4 121.83 287.4 121.83 286.2C121.83 285.2 121.23 284.4 120.33 284.2C120.73 283.9 121.33 283.7 121.83 283.7C123.03 283.7 124.03 284.5 124.33 285.7C124.33 285.8 124.33 286 124.33 286.2V286.3C124.33 286.5 124.33 286.5 124.23 286.7V286.9C123.93 287.9 123.43 288.5 122.43 288.9C119.63 289.8 114.73 287.9 112.63 286.2L112.23 285.9C109.93 284.1 107.43 282.8 104.63 281.7H138.43C143.93 281.7 148.13 286 148.13 291.4C148.13 295.8 145.33 299.6 141.13 300.9C141.03 300.9 140.93 300.9 140.93 301C140.83 301 140.73 301 140.73 301.1H140.63C139.93 301.3 139.23 301.3 138.53 301.3C135.73 301.3 133.33 298.9 133.33 296.1C133.33 293.3 135.73 290.9 138.53 290.9C139.33 290.9 140.13 291.2 140.73 291.7C139.23 291.8 137.93 293.1 137.93 294.7C137.93 296.3 139.33 297.7 140.93 297.7C142.43 297.7 143.83 296.5 143.93 294.9V294.5C143.93 291.7 141.73 289.4 138.73 289.2C138.63 289.2 138.63 289.2 138.53 289.2C134.63 289.2 131.53 292.3 131.53 296.2C131.53 300.1 134.63 303.2 138.53 303.2C139.33 303.2 140.03 303.1 140.83 303H140.93C140.93 303 140.93 303 141.03 303C141.13 303 141.23 303 141.33 302.9H141.43C143.13 302.5 146.23 302 148.83 302.7C150.93 303.2 152.03 304.2 152.13 305.8C151.83 305.1 151.23 304.7 150.43 304.7C149.43 304.7 148.63 305.5 148.63 306.5C148.63 307 148.83 307.4 149.13 307.7C149.63 308.3 150.23 308.5 151.13 308.5C151.93 308.5 152.53 308.2 153.03 307.7C153.53 307.2 153.83 306.5 153.83 305.7C153.73 303.2 152.13 301.6 149.23 300.9C148.23 300.7 147.13 300.5 146.03 300.5C148.63 298.3 150.13 295.2 150.13 291.8C150.13 285.4 144.93 280.2 138.63 280.2H96.73V282H97.13C97.23 282 104.73 282.3 111.73 287.9C114.23 289.8 116.83 292.1 119.43 294.4C120.03 294.9 120.63 295.5 121.33 296C121.93 296.5 122.53 297.1 123.13 297.6C123.83 298.2 124.63 298.9 125.23 299.5C124.93 299.5 124.73 299.5 124.43 299.6C123.23 299.8 122.23 300.6 121.63 301.8C121.13 302.7 120.93 303.8 121.33 304.8C121.73 305.7 122.13 306.3 122.73 306.6L123.13 306.8C123.43 306.9 123.73 307 124.03 307C125.33 307 126.33 306 126.33 304.8C126.33 303.6 125.33 302.5 124.03 302.5C123.83 302.5 123.53 302.5 123.33 302.6C123.63 301.9 124.23 301.5 124.83 301.4C126.83 301 129.63 303.2 129.63 303.2L129.93 303.4C131.13 304.3 132.13 304.9 132.83 305.3C133.13 305.5 136.73 307.7 142.43 309.4H112.13C108.13 309.3 104.83 305.9 104.83 301.9C104.83 297.8 108.23 294.4 112.33 294.4H112.43C115.23 294.4 117.33 296.6 117.33 299.4C117.33 299.7 117.33 299.9 117.23 300.2C116.63 299.5 115.73 299 114.73 299C112.93 299 111.53 300.4 111.53 302.1C111.53 303.9 112.93 305.3 114.73 305.3C115.73 305.3 116.73 304.8 117.33 303.9C118.43 302.7 119.03 301.1 119.03 299.4C119.03 295.7 116.23 292.7 112.63 292.6H111.83C106.93 292.8 102.93 296.9 102.93 301.8C102.93 304.5 104.03 307 106.13 308.8C102.83 308.2 100.83 307 100.13 305.1C100.83 304.9 101.23 304.3 101.23 303.6C101.23 302.8 100.53 302 99.63 302C98.83 302 98.23 302.5 98.03 303.3V303.7C98.23 308.4 102.43 310.8 110.63 311C110.83 311 111.03 311 111.23 311H111.63H198.93H199.33C199.53 311 199.73 311 199.93 311C208.13 310.9 212.33 308.4 212.53 303.7V303.3C212.43 302.5 211.83 302 210.93 302C209.93 302 209.33 302.8 209.33 303.6C209.33 304.4 209.73 304.9 210.43 305.1C209.73 306.9 207.73 308.2 204.43 308.8C206.43 307 207.63 304.5 207.63 301.8C207.63 296.8 203.63 292.7 198.73 292.6H197.93C196.13 292.7 194.53 293.4 193.43 294.7C192.23 295.9 191.53 297.6 191.53 299.4C191.53 301.1 192.13 302.6 193.23 303.9C193.83 304.8 194.83 305.3 195.83 305.3C197.63 305.3 199.03 303.9 199.03 302.1C199.03 300.3 197.63 299 195.83 299C194.83 299 193.93 299.5 193.33 300.2C193.33 299.9 193.23 299.7 193.23 299.4C193.23 296.6 195.43 294.4 198.13 294.4H198.23C202.33 294.4 205.73 297.8 205.73 301.9C205.73 305.9 202.43 309.3 198.43 309.4H168.23C173.93 307.8 177.43 305.5 177.83 305.3C178.63 304.9 179.53 304.3 180.73 303.4L181.03 303.2C181.03 303.2 183.73 301 185.83 301.4C186.53 301.5 187.03 301.9 187.33 302.6C187.13 302.5 186.83 302.5 186.63 302.5C185.43 302.5 184.33 303.5 184.33 304.8C184.33 306 185.33 307 186.63 307C186.93 307 187.23 306.9 187.53 306.8L187.93 306.6C188.43 306.3 188.93 305.7 189.23 304.8C189.53 303.8 189.43 302.7 188.93 301.8C188.23 300.6 187.33 299.8 186.13 299.6C185.83 299.6 185.63 299.5 185.33 299.5C186.03 298.9 186.73 298.3 187.53 297.6C188.23 297 188.83 296.5 189.43 296Z" fill="#010101"/>
<path d="M248 285.7C248.3 285.4 248.6 285.2 248.9 285.1C249.3 285 249.6 284.9 250 284.9C250.9 284.9 251.5 285.2 252.1 285.7L252.2 285.8C253.7 287.5 253.7 290 253.5 293.1C253.3 296.6 253.1 299.9 255.5 302.2C256.5 303.2 257.8 303.7 259.1 303.6C258 302.5 258 300.6 259.1 299.5C259.7 298.9 260.4 298.6 261.2 298.6C262 298.6 262.7 298.9 263.3 299.5C263.6 299.8 263.8 300.1 264 300.4C264.2 300.7 264.3 301.1 264.3 301.5C264.3 302.3 264 303 263.4 303.6C263.2 303.8 262.9 304 262.6 304.1C260.1 305.9 256.7 305.7 254.4 303.5C254.4 303.5 254.4 303.5 254.3 303.5C254.3 303.5 254.3 303.5 254.2 303.4C251.4 300.5 251.6 296.3 251.8 293C251.9 291.9 251.9 290.9 251.9 290.1C251.4 290.5 250.8 290.7 250.1 290.7C249.3 290.7 248.6 290.4 248 289.8C246.9 288.6 246.9 286.8 248 285.7Z" fill="#010101"/>
<path d="M252.1 258.4C252.2 258.3 252.1 258.3 252.1 258.4C252.7 257.8 253.3 257.6 254 257.6C254.7 257.6 255.3 257.9 255.9 258.4C256.9 259.4 256.9 261 255.9 262C255.4 262.5 254.7 262.8 254 262.8C253.4 262.8 252.8 262.5 252.4 262.1C252.4 262.6 252.5 263.1 252.7 263.6C253.4 265 255.1 266.1 256.9 266.2H257C260.4 265.1 264.6 266 268.9 268.8C266.2 264.6 265.3 260.5 266.2 257.1C266.3 255.3 265.2 253.3 263.5 252.5C263.3 252.4 262.8 252.2 262.1 252.1C262.6 252.6 262.9 253.3 262.9 253.9C262.9 254.6 262.6 255.2 262.1 255.8C261.1 256.8 259.5 256.8 258.5 255.8C258 255.3 257.7 254.6 257.7 253.9C257.7 253.5 257.8 252.6 258.3 252C259.5 251 260.9 250.4 262.2 250.4C262.9 250.4 263.6 250.6 264.4 250.9C265.8 251.6 267 252.8 267.6 254.4C268.9 252.6 271 251.4 273.6 250.9H273.8H273.9C274.7 250.9 275.6 251.2 276.2 251.8C276.7 252.3 277.1 253.1 277.1 254C277.1 254.8 276.8 255.6 276.2 256.2C275.1 257.3 273 257.3 271.9 256.2C271.3 255.6 271 254.7 271 253.9C269.7 254.8 268.8 256 268.2 257.6C266.8 262 269.4 268 275.3 273.9L275.8 274.5C276 274.7 276.1 274.9 276.1 275.1C276.1 275.3 276 275.5 275.8 275.7C275.6 275.9 275.4 276 275.2 276C275 276 274.8 275.9 274.6 275.7L274 275.2C268.2 269.4 262.3 266.8 257.8 268C257.7 268 257.7 268 257.6 268.1C257.5 268.1 257.4 268.2 257.3 268.2C255.9 268.8 254.7 269.7 253.9 271C254.8 270.9 255.7 271.3 256.3 271.9C256.8 272.4 257.2 273.2 257.2 274.1C257.2 274.9 256.9 275.7 256.3 276.3C255.8 276.8 255 277.2 254.1 277.2C253.3 277.2 252.5 276.9 251.9 276.3C251.3 275.7 250.9 274.9 251 274.1C251 274 251 273.9 251 273.7C251.4 271.3 252.6 269.3 254.4 267.9C252.9 267.3 251.7 266.2 251 264.8C250.1 262.3 250.5 260.1 252.1 258.4Z" fill="#010101"/>
<path d="M217.4 227.8H217.5C217.5 227 217.9 226.2 218.5 225.6C219.1 225 219.8 224.7 220.7 224.7C221.6 224.7 222.4 225 223.1 225.7C223.7 226.3 224 227.1 224 228C224 228.9 223.7 229.7 223.1 230.3C222.4 231 221.3 231.3 220.3 231.2C220.4 231.3 220.5 231.4 220.5 231.5C222.7 233.7 227 233.1 230 230.2L230.1 230.1C231.6 228.6 232.5 226.8 232.7 225C232.9 223.3 232.4 221.8 231.4 220.6C231.4 220.7 231.4 220.8 231.4 220.9C231.4 221.8 231.1 222.6 230.4 223.3C229.1 224.6 227 224.6 225.8 223.3C225.1 222.6 224.8 221.8 224.8 220.9C224.8 220 225.1 219.1 225.7 218.5C226.3 217.9 227.1 217.5 227.9 217.5H228.3C230.1 217.6 231.7 218.3 232.7 219.4C234.2 220.9 234.8 222.9 234.5 225.2C234.2 227.4 233.1 229.6 231.4 231.3L231.3 231.4C229.6 233.1 227.4 234.3 225.1 234.5C222.8 234.8 220.8 234.1 219.3 232.7C218.2 231.6 217.5 230 217.4 228.3V227.8Z" fill="#010101"/>
<path d="M214.59 282.01C217.89 281.81 221.1 282.5 224 283.7L224.3 283.8C228.3 285.3 232.3 286.8 236.8 285.3L237.2 285.2C239.1 284.5 240.8 283 241.9 280.9C242.5 279.7 242.7 278.3 242.2 276.8C241.8 275.6 241 274.4 240 273.6C238.4 272.4 236.4 272.4 234.7 273.6C234.5 273.7 234.2 273.9 234 274.1C233.3 274.9 232.9 275.9 232.9 276.8C232.9 277.9 233.3 278.8 234 279.6C234.7 280.3 235.6 280.7 236.7 280.8C237.8 280.8 238.8 280.4 239.6 279.7C240.2 279.2 240.5 278.5 240.7 277.8C240.8 278.6 240.7 279.4 240.4 280C239.5 281.8 238.2 283 236.4 283.6C236.3 283.6 236.2 283.7 236.1 283.7H236C233.6 284.3 230.8 283.7 228.6 282.2C215.3 273.6 220.3 256.8 223 249.9C224.6 246.1 230.1 237.8 234 234L234.1 233.9C237.8 230.1 245.9 224.5 250.1 222.8C253.2 221.6 259.3 219.5 265.7 219.6C273.1 219.7 278.7 222.7 282.4 228.4C283.9 230.7 284.4 233.5 283.9 235.9C283.9 236 283.8 236.1 283.8 236.2C283.2 237.9 282 239.3 280.2 240.3C279.3 240.7 278.4 240.7 277.6 240.5C278.5 240.4 279.4 240.1 280.1 239.4C280.8 238.7 281.2 237.8 281.3 236.7C281.3 235.6 280.9 234.6 280.1 233.8C279.2 233.1 278.4 232.7 277.4 232.7C276.4 232.7 275.4 233.1 274.7 233.8L274.6 233.9C272.8 235.6 272.6 237.9 274 239.8C275.5 241.8 278.7 243.1 281.2 241.7C283.3 240.6 284.8 239 285.5 236.9L285.6 236.6C287.1 232.1 285.6 228 284.1 224.1L284 223.9C282.9 221 281.51 217.36 281.71 213.96L281.7 213.55H279.9V213.85C279.7 217.05 280.7 220.5 281.7 223.4C281.8 223.8 282 224.1 282.1 224.5C282.2 224.7 282.3 224.9 282.4 225.2C279.5 221.7 274.1 217.5 265 217.5C260.2 217.5 255 218.6 249.5 220.9C245.3 222.6 236.8 228.4 232.8 232.4L232.7 232.5C228.8 236.4 222.9 244.9 221.2 249.2C217.4 258.6 216.8 266.7 219.2 273.4C220.8 277.5 223.2 280.3 225.3 282C225.2 282 225.1 281.9 225.1 281.9L224.6 281.7C223.7 281.4 222.8 281 221.9 280.7C221 280.4 220.12 280.23 219.11 280.1C218.1 279.97 217.2 280.05 216.2 280.05C215.5 280.05 214.95 280.1 214.05 280.1V282L214.59 282.01Z" fill="#010101"/>
<path d="M224.5 261.9C224.8 262.8 225.2 263.5 225.7 264.2C225.9 264.4 226 264.6 226.2 264.9C227.8 266.5 230.2 266.5 231.7 264.9C233.3 263.3 233.3 260.9 231.7 259.4C231 258.7 230 258.3 228.9 258.3C227.8 258.3 226.9 258.7 226.1 259.4C226 259.5 225.9 259.6 225.8 259.8C225.6 257.3 226.7 255.2 228.8 253.8C232 251.6 236.3 251.6 239.5 253.9C240 254.2 240.5 254.6 240.9 255C241.2 255.3 241.5 255.5 241.8 255.8C249.6 263.2 246.9 272.4 244.9 279C244.6 280 244.3 281 244.1 281.9C243.9 282.6 243.6 283.3 243.3 284.1C243.2 284.4 243.1 284.6 243 284.9C242.4 286.5 241.6 288.5 241.3 290.9C241.1 291.9 238.3 301.7 235.1 305C233.9 306.2 232.3 306.9 230.6 306.9C228.9 306.9 227.3 306.2 226.1 305C224.9 303.8 224.2 302.2 224.2 300.5C224.2 299.6 224.4 298.7 224.8 297.8C225.3 298.3 226 298.5 226.6 298.5C227.1 298.5 227.6 298.2 228 297.8C228.8 296.8 228.8 295.5 228 294.6C227.6 294.2 227 294 226.4 294C225.8 294 225.2 294.3 224.8 294.7C224.7 294.8 224.6 294.9 224.5 295C223.1 296.4 222.4 298.4 222.4 300.4C222.4 302.6 223.2 304.6 224.8 306.1C226.4 307.7 228.3 308.5 230.5 308.5C232.7 308.5 234.7 307.7 236.2 306.1C238.3 304 240 300 241.2 296.5C241.3 296.9 241.4 297.4 241.5 297.9C242.2 300.8 244.1 304 246.7 306.4C248.8 308.4 252.3 310.8 256.9 311H257.3C262 311 266.4 309.2 269.8 305.8C273.2 302.4 275 298 275 293.3C275 288.5 273.2 284.1 269.8 280.8C268.2 279.2 266.1 278.3 263.8 278.3C261.3 278.3 259.2 279.2 257.7 280.8C256.9 281.6 256.5 282.6 256.5 283.7C256.5 284.8 256.9 285.8 257.7 286.6C258.5 287.4 259.5 287.8 260.6 287.8C261.7 287.8 262.7 287.4 263.5 286.6C264.3 285.8 264.7 284.8 264.7 283.7C264.7 282.6 264.3 281.6 263.5 280.8C263.2 280.5 263 280.3 262.7 280.2C264.9 279.9 267 280.5 268.6 282.1C274.8 288.4 274.8 298.5 268.6 304.7C265.7 307.6 261.9 309.2 257.8 309.3H257.5C250 309.3 244.3 302.4 243.3 297.6C242.8 295.5 242.7 293.6 242.9 291.6C242.9 291.4 243 291.2 243 291.2C243.3 289.1 244 287.4 244.6 285.7C244.7 285.5 244.8 285.3 244.9 285C245.2 284.1 245.5 283.4 245.8 282.5C246 281.6 246.3 280.7 246.6 279.7L246.7 279.5C248.7 272.7 251.8 262.4 242.8 254.3C241.5 252.8 240.8 250.9 240.8 248.9C240.8 246.7 241.7 244.6 243.2 243.1C244.8 241.5 246.8 240.7 249 240.7C250.1 240.7 251.2 240.9 252.2 241.3C253.2 241.7 254.1 242.3 254.8 243C262.9 251.4 273 248.4 279.7 246.4C280.1 246.3 280.5 246.2 280.8 246.1C281.4 245.9 282 245.8 282.5 245.6C283.5 245.3 284.6 244.9 285.7 244.5C287.4 243.9 289.2 243.2 291.2 242.9C291.4 242.9 291.6 242.8 291.8 242.8C293.7 242.6 295.6 242.7 297.6 243.2C300.1 243.8 303 245.6 305.2 248C307.1 250 309.3 253.2 309.3 257.4C309.3 261.6 307.7 265.6 304.6 268.6C298.5 274.7 288.6 274.8 282.4 268.9L282.1 268.6C280.6 267 279.9 264.8 280.2 262.7C280.4 262.9 280.5 263.2 280.8 263.4C281.6 264.2 282.6 264.6 283.7 264.6C284.8 264.6 285.8 264.2 286.6 263.4C287.4 262.6 287.8 261.6 287.8 260.5C287.8 260 287.7 259.4 287.5 258.9C287.3 258.4 287 258 286.6 257.6C285.8 256.8 284.8 256.4 283.7 256.4C282.6 256.4 281.5 256.8 280.8 257.6C280.5 257.9 280.3 258.1 280.2 258.4C277.6 261.7 277.8 266.4 280.6 269.4L280.5 269.5L280.8 269.8C284.1 273.1 288.6 275 293.3 275C298.1 275 302.5 273.2 305.8 269.8C309.2 266.4 311 262.1 311 257.3C311 253.6 309.4 249.8 306.5 246.7C304 244.1 300.7 242.1 297.9 241.5C297.4 241.4 296.9 241.3 296.5 241.2C300 240 304.1 238.2 306.2 236.2C307.8 234.6 308.6 232.7 308.6 230.5C308.6 228.3 307.8 226.3 306.2 224.8C304.6 223.2 302.7 222.4 300.5 222.4C298.5 222.4 296.4 223.3 294.8 224.8C294.7 224.8 294.7 224.9 294.7 224.9C294.2 225.4 294.2 226.1 294.2 226.5C294.2 227.1 294.4 227.7 294.8 228.1C295.6 228.9 297.2 228.9 298 228.1C298.8 227.1 298.8 225.8 298 224.9C297.9 224.8 297.9 224.8 297.8 224.7C298.6 224.3 299.5 224.1 300.4 224.1C302.1 224.1 303.7 224.8 304.9 226C306.1 227.2 306.8 228.8 306.8 230.5C306.8 232.2 306.1 233.8 304.9 235C301.6 238.3 292 241 291 241.2H290.8C288.7 241.5 287 242.2 285.3 242.8L284.9 243C284.1 243.4 283.2 243.7 282.3 244L281.9 244.1C281 244.3 280.1 244.6 279.1 244.9H279C275.8 245.9 271.8 247.1 267.8 247.1C263 247.1 259.1 245.4 255.8 241.8C255.5 241.5 255.1 241.1 255 240.8C254.6 240.3 254.2 239.8 253.9 239.4C251.6 236.3 251.6 231.9 253.8 228.7C255.2 226.6 257.3 225.5 259.8 225.7C259.7 225.8 259.5 225.9 259.4 226C257.8 227.6 257.8 230 259.4 231.5C261 233.1 263.4 233.1 264.9 231.5C266.5 229.9 266.5 227.5 264.9 226C264.8 225.9 264.7 225.8 264.6 225.7C263.9 225 263 224.5 262 224.2C261.1 223.9 260.1 223.8 259.4 223.8C256.5 223.8 254 225.1 252.3 227.4C249.9 230.8 249.7 235.4 251.8 239.1C250.8 238.8 249.9 238.7 248.9 238.7C246.2 238.7 243.7 239.7 241.9 241.6C240 243.5 239 246 239 248.6C239 249.6 239.1 250.6 239.4 251.5C237.8 250.6 236 250.1 234.1 250.1C231.7 250.1 229.6 250.8 227.9 252.1C224.8 254.4 223.5 258 224.5 261.9Z" fill="#010101"/>
<path d="M290.8 250.1C290.8 250.7 290.6 251.3 290.2 251.8C291.1 251.8 292.1 251.8 293.1 251.7H293.3C296.8 251.5 300.8 251.3 303.6 254.2C306.1 256.7 306.1 260.7 303.6 263.3L303.3 263.6L303.2 263.5C302.1 264.3 300.5 264.2 299.4 263.2C299.1 262.9 298.9 262.6 298.7 262.3C298.5 261.9 298.4 261.6 298.4 261.2C298.4 260.4 298.7 259.7 299.3 259.1C299.8 258.6 300.6 258.3 301.4 258.3C302.2 258.3 303 258.6 303.5 259.1L303.6 259.2C303.7 257.8 303.3 256.5 302.2 255.5C299.8 253.1 296.4 253.3 293.1 253.5C290.6 253.7 288.4 253.8 286.8 252.9C286.4 252.8 286 252.5 285.7 252.2C285.1 251.6 284.8 250.9 284.8 250.1C284.8 249.3 285.1 248.6 285.7 248C286.2 247.4 286.9 247.1 287.8 247.1C288.6 247.1 289.3 247.4 289.9 248C290.5 248.6 290.8 249.3 290.8 250.1Z" fill="#010101"/>
<path d="M302.1 302.1C293.8 293.8 287.1 293.8 278.8 302.1C287.2 293.8 287.2 287.1 278.8 278.8C287.2 287.2 293.8 287.2 302.1 278.8C293.8 287.2 293.8 293.8 302.1 302.1Z" fill="#010101"/>
<path d="M63 285.5C62.7 285.2 62.4 285 62.1 284.9C61.7 284.8 61.4 284.7 61 284.7C60.1 284.7 59.5 285 58.9 285.5L58.8 285.6C57.3 287.3 57.3 289.8 57.5 292.9C57.7 296.4 57.9 299.7 55.5 302C54.5 303 53.2 303.5 51.9 303.4C53 302.3 53 300.4 51.9 299.3C51.3 298.7 50.6 298.4 49.8 298.4C49 298.4 48.3 298.7 47.7 299.3C47.4 299.6 47.2 299.9 47 300.2C46.8 300.5 46.7 300.9 46.7 301.3C46.7 302.1 47 302.8 47.6 303.4C47.8 303.6 48.1 303.8 48.4 303.9C50.9 305.7 54.3 305.5 56.6 303.3C56.6 303.3 56.6 303.3 56.7 303.3C56.7 303.3 56.7 303.3 56.8 303.2C59.6 300.3 59.4 296.1 59.2 292.8C59.1 291.7 59.1 290.7 59.1 289.9C59.6 290.3 60.2 290.5 60.9 290.5C61.7 290.5 62.4 290.2 63 289.6C64.2 288.4 64.2 286.6 63 285.5Z" fill="#010101"/>
<path d="M58.9 258.2C58.9 258.1 58.9 258.1 58.9 258.2C58.3 257.6 57.7 257.4 57 257.4C56.3 257.4 55.7 257.7 55.1 258.2C54.1 259.2 54.1 260.8 55.1 261.8C55.6 262.3 56.3 262.6 57 262.6C57.6 262.6 58.2 262.3 58.6 261.9C58.6 262.4 58.5 262.9 58.3 263.4C57.6 264.8 55.9 265.9 54.1 266H54C50.6 264.9 46.4 265.8 42.1 268.6C44.8 264.4 45.7 260.3 44.8 256.9C44.7 255.1 45.8 253.1 47.5 252.3C47.7 252.2 48.2 252 48.9 251.9C48.4 252.4 48.1 253.1 48.1 253.7C48.1 254.4 48.4 255 48.9 255.6C49.9 256.6 51.5 256.6 52.5 255.6C53 255.1 53.3 254.4 53.3 253.7C53.3 253.3 53.2 252.4 52.7 251.8C51.5 250.8 50.1 250.2 48.8 250.2C48.1 250.2 47.4 250.4 46.6 250.7C45.2 251.4 44 252.6 43.4 254.2C42.1 252.4 40 251.2 37.4 250.7H37.2H37.1C36.3 250.7 35.4 251 34.8 251.6C34.3 252.1 33.9 252.9 33.9 253.8C33.9 254.6 34.2 255.4 34.8 256C35.9 257.1 38 257.1 39.1 256C39.7 255.4 40 254.5 40 253.7C41.3 254.6 42.2 255.8 42.8 257.4C44.2 261.8 41.6 267.8 35.7 273.7L35.2 274.3C35 274.5 34.9 274.7 34.9 274.9C34.9 275.1 35 275.3 35.2 275.5C35.4 275.7 35.6 275.8 35.8 275.8C36 275.8 36.2 275.7 36.4 275.5L37 275C42.8 269.2 48.7 266.6 53.2 267.8C53.3 267.8 53.3 267.8 53.4 267.9C53.5 267.9 53.6 268 53.7 268C55.1 268.6 56.3 269.5 57.1 270.8C56.2 270.7 55.3 271.1 54.7 271.7C54.2 272.2 53.8 273 53.8 273.9C53.8 274.7 54.1 275.5 54.7 276.1C55.2 276.6 56 277 56.9 277C57.7 277 58.5 276.7 59.1 276.1C59.7 275.5 60.1 274.7 60 273.9C60 273.8 60 273.7 60 273.5C59.6 271.1 58.4 269.1 56.6 267.7C58.1 267.1 59.3 266 60 264.6C60.9 262.1 60.5 259.9 58.9 258.2Z" fill="#010101"/>
<path d="M93.6 227.6H93.5C93.5 226.8 93.1 226 92.5 225.4C91.9 224.8 91.2 224.5 90.3 224.5C89.4 224.5 88.6 224.8 87.9 225.5C87.3 226.1 87 226.9 87 227.8C87 228.7 87.3 229.5 87.9 230.1C88.6 230.8 89.7 231.1 90.7 231C90.6 231.1 90.5 231.2 90.5 231.3C88.3 233.5 84 232.9 81 230L80.9 229.9C79.4 228.4 78.5 226.6 78.3 224.8C78.1 223.1 78.6 221.6 79.6 220.4C79.6 220.5 79.6 220.6 79.6 220.7C79.6 221.6 79.9 222.4 80.6 223.1C81.9 224.4 84 224.4 85.2 223.1C85.9 222.4 86.2 221.6 86.2 220.7C86.2 219.8 85.9 218.9 85.3 218.3C84.7 217.7 83.9 217.3 83.1 217.3H82.7C80.9 217.4 79.3 218.1 78.3 219.2C76.8 220.7 76.2 222.7 76.5 225C76.8 227.2 77.9 229.4 79.6 231.1L79.7 231.2C81.4 232.9 83.6 234.1 85.9 234.3C88.2 234.6 90.2 233.9 91.7 232.5C92.8 231.4 93.5 229.8 93.6 228.1V227.6Z" fill="#010101"/>
<path d="M96.99 282V280.2C96.29 280.2 95.4 280.19 94.7 280.19C93.7 280.19 92.82 280.13 91.8 280.26C90.91 280.38 90.02 280.44 89.1 280.7C88.19 280.96 87.3 281.3 86.4 281.7L85.9 281.9C85.8 281.9 85.7 282 85.7 282C87.8 280.3 90.3 277.5 91.8 273.4C94.3 266.7 93.6 258.6 89.8 249.2C88.1 244.9 82.2 236.4 78.3 232.5L78.2 232.4C74.2 228.4 65.8 222.6 61.5 220.9C56 218.7 50.8 217.5 46 217.5C36.9 217.5 31.5 221.7 28.6 225.2C28.7 225 28.8 224.8 28.9 224.5C29 224.1 29.2 223.8 29.3 223.4C30.3 220.5 31.2 217.4 31 214.2V213.9H29.2V214.31C29.4 217.61 28.4 221 27.2 223.9L27.1 224.1C25.6 228 24.1 232.1 25.6 236.6L25.7 236.9C26.4 238.9 27.9 240.5 30 241.7C32.6 243.1 35.8 241.8 37.2 239.8C38.6 237.9 38.4 235.6 36.6 233.9L36.5 233.8C35.8 233.1 34.8 232.7 33.8 232.7C32.8 232.7 31.9 233 31.1 233.8C30.3 234.6 29.9 235.6 29.9 236.7C29.9 237.7 30.3 238.7 31.1 239.4C31.7 240 32.6 240.4 33.6 240.5C32.8 240.7 31.9 240.7 31 240.3C29.2 239.3 28 238 27.4 236.2C27.4 236.1 27.3 236 27.3 235.9C26.7 233.6 27.3 230.7 28.8 228.4C32.5 222.7 38.1 219.7 45.5 219.6C51.9 219.5 58 221.6 61.1 222.8C65.3 224.5 73.5 230.1 77.1 233.9L77.2 234C81.1 237.8 86.6 246.1 88.2 249.9C90.9 256.7 95.9 273.6 82.6 282.2C80.4 283.7 77.6 284.2 75.2 283.7H75.1C75 283.7 74.9 283.6 74.8 283.6C73 283.1 71.7 281.9 70.8 280C70.5 279.3 70.4 278.5 70.5 277.8C70.7 278.5 71 279.2 71.6 279.7C72.3 280.4 73.4 280.9 74.5 280.8C75.5 280.8 76.5 280.4 77.2 279.6C77.9 278.9 78.3 277.9 78.3 276.8C78.3 275.9 77.9 274.9 77.2 274.1C77 273.9 76.7 273.7 76.5 273.6C74.8 272.4 72.9 272.4 71.2 273.6C70.2 274.4 69.4 275.5 69 276.8C68.5 278.2 68.7 279.7 69.3 280.9C70.4 283 72.1 284.5 74 285.2L74.4 285.3C78.9 286.8 83 285.3 86.9 283.8L87.2 283.7C90.2 282.6 93.26 281.79 96.46 281.99L96.99 282Z" fill="#010101"/>
<path d="M86.5 261.7C87.5 257.8 86.3 254.2 83.1 252.1C81.4 250.8 79.3 250.1 76.9 250.1C75.1 250.1 73.2 250.6 71.6 251.5C71.9 250.6 72 249.6 72 248.6C72 245.9 71 243.4 69.1 241.6C67.2 239.7 64.7 238.7 62.1 238.7C61.1 238.7 60.1 238.8 59.2 239.1C61.3 235.5 61.1 230.8 58.7 227.4C57.1 225.1 54.5 223.8 51.6 223.8C50.9 223.8 49.9 223.9 49 224.2C48 224.5 47.2 224.9 46.4 225.7C46.3 225.8 46.2 225.9 46.1 226C44.5 227.6 44.5 230 46.1 231.5C47.7 233.1 50.1 233.1 51.6 231.5C53.2 229.9 53.2 227.5 51.6 226C51.5 225.9 51.3 225.8 51.2 225.7C53.7 225.5 55.8 226.6 57.2 228.7C59.4 231.9 59.4 236.3 57.1 239.4C56.8 239.9 56.4 240.3 56 240.8C55.8 241 55.5 241.5 55.2 241.8C51.9 245.3 47.9 247.1 43.2 247.1C39.2 247.1 35.2 245.9 32 244.9H31.9C30.9 244.6 30 244.3 29.1 244.1L28.7 244C27.8 243.7 26.9 243.5 26.1 243L25.7 242.8C24 242.2 22.3 241.6 20.2 241.2H20C19 241 9.4 238.3 6.1 235C4.9 233.8 4.2 232.2 4.2 230.5C4.2 228.8 4.9 227.2 6.1 226C7.3 224.8 8.9 224.1 10.6 224.1C11.5 224.1 12.4 224.3 13.2 224.7C13.1 224.8 13.1 224.8 13 224.9C12.2 225.8 12.2 227.1 13 228.1C13.9 228.9 15.4 228.9 16.2 228.1C16.6 227.7 16.8 227.1 16.8 226.5C16.8 226.1 16.7 225.4 16.3 224.9C16.3 224.9 16.3 224.8 16.2 224.8C14.6 223.2 12.5 222.4 10.5 222.4C8.3 222.4 6.3 223.2 4.8 224.8C3.2 226.4 2.4 228.3 2.4 230.5C2.4 232.7 3.2 234.7 4.8 236.2C6.9 238.3 10.9 240 14.5 241.2C14 241.3 13.5 241.4 13.1 241.5C10.3 242.1 7 244.1 4.5 246.7C1.6 249.8 0 253.6 0 257.3C0 262.1 1.8 266.4 5.2 269.8C8.5 273.1 13 275 17.7 275C22.4 275 26.9 273.2 30.2 269.8L30.5 269.5L30.4 269.4C33.2 266.4 33.4 261.7 30.8 258.4C30.6 258.1 30.4 257.8 30.2 257.6C29.4 256.8 28.4 256.4 27.3 256.4C26.2 256.4 25.2 256.8 24.4 257.6C24 258 23.7 258.4 23.5 258.9C23.3 259.4 23.2 259.9 23.2 260.5C23.2 261.6 23.6 262.6 24.4 263.4C25.2 264.2 26.2 264.6 27.3 264.6C28.4 264.6 29.4 264.2 30.2 263.4C30.4 263.2 30.6 263 30.8 262.7C31.1 264.8 30.4 267 28.9 268.6L28.6 268.9C22.4 274.8 12.5 274.7 6.4 268.6C3.4 265.6 1.7 261.6 1.7 257.4C1.7 253.2 3.9 249.9 5.8 248C8 245.7 10.9 243.9 13.4 243.2C15.4 242.8 17.3 242.6 19.2 242.8C19.4 242.8 19.6 242.8 19.8 242.9C21.9 243.2 23.6 243.9 25.3 244.5C26.4 244.9 27.5 245.3 28.5 245.6C29 245.7 29.6 245.9 30.2 246.1C30.6 246.2 30.9 246.3 31.3 246.4C38 248.4 48.1 251.4 56.2 243C56.9 242.3 57.8 241.7 58.8 241.3C59.8 240.9 60.9 240.7 62 240.7C64.1 240.7 66.1 241.5 67.8 243.1C69.3 244.6 70.2 246.7 70.2 248.9C70.2 250.9 69.5 252.8 68.2 254.3C59.2 262.4 62.3 272.7 64.3 279.5L64.4 279.7C64.7 280.6 65 281.6 65.2 282.5C65.5 283.4 65.7 284.2 66.1 285C66.2 285.2 66.3 285.4 66.4 285.7C67 287.4 67.7 289.1 68 291.2C68 291.3 68 291.5 68.1 291.6C68.3 293.6 68.2 295.5 67.7 297.6C66.7 302.4 61 309.3 53.5 309.3H53C48.9 309.2 45.1 307.6 42.2 304.7C36 298.5 36 288.4 42.2 282.1C43.8 280.5 46 279.9 48.1 280.2C47.8 280.4 47.5 280.6 47.3 280.8C46.5 281.6 46.1 282.6 46.1 283.7C46.1 284.8 46.5 285.8 47.3 286.6C48.1 287.4 49.1 287.8 50.2 287.8C51.3 287.8 52.3 287.4 53.1 286.6C53.9 285.8 54.3 284.8 54.3 283.7C54.3 282.6 53.9 281.6 53.1 280.8C51.6 279.2 49.5 278.3 47 278.3C44.7 278.3 42.6 279.2 41 280.8C37.7 284.1 35.8 288.6 35.8 293.3C35.8 298.1 37.6 302.5 41 305.8C44.4 309.1 48.8 311 53.5 311H53.9C58.5 310.8 61.9 308.5 64.1 306.4C66.7 303.9 68.7 300.7 69.3 297.9C69.4 297.4 69.5 297 69.6 296.5C70.8 300 72.5 304 74.6 306.1C76.2 307.7 78.1 308.5 80.3 308.5C82.5 308.5 84.5 307.7 86 306.1C87.6 304.5 88.4 302.6 88.4 300.4C88.4 298.3 87.6 296.4 86.3 295C86.2 294.9 86.1 294.8 86 294.7C85.6 294.3 85 294 84.4 294C83.8 294 83.2 294.2 82.8 294.6C81.9 295.5 81.9 296.8 82.8 297.8C83.2 298.2 83.7 298.5 84.2 298.5C84.8 298.5 85.5 298.3 86 297.8C86.4 298.6 86.6 299.5 86.6 300.5C86.6 302.2 85.9 303.8 84.7 305C83.5 306.2 81.9 306.9 80.2 306.9C78.5 306.9 76.9 306.2 75.7 305C72.4 301.7 69.7 291.9 69.5 290.9C69.2 288.6 68.4 286.6 67.8 284.9C67.7 284.6 67.6 284.3 67.5 284.1C67.2 283.3 67 282.6 66.7 281.9C66.5 281 66.2 280 65.9 279C63.9 272.3 61.1 263.2 69 255.8C69.3 255.5 69.6 255.2 69.9 255C70.3 254.6 70.8 254.2 71.3 253.9C74.4 251.6 78.8 251.6 82 253.8C84.1 255.3 85.2 257.4 85 259.8C84.9 259.7 84.8 259.5 84.7 259.4C84 258.7 83 258.3 81.9 258.3C80.8 258.3 79.9 258.7 79.1 259.4C77.5 261 77.5 263.4 79.1 264.9C80.7 266.5 83.1 266.5 84.6 264.9C84.8 264.7 85 264.5 85.1 264.2C85.8 263.3 86.2 262.6 86.5 261.7Z" fill="#010101"/>
<path d="M20.2 249.9C20.2 250.5 20.4 251.1 20.8 251.6C19.9 251.6 18.9 251.6 17.9 251.5H17.7C14.2 251.3 10.2 251.1 7.39999 254C4.89999 256.5 4.89999 260.5 7.39999 263.1L7.69999 263.4L7.79999 263.3C8.89999 264.1 10.5 264 11.6 263C11.9 262.7 12.1 262.4 12.3 262.1C12.5 261.7 12.6 261.4 12.6 261C12.6 260.2 12.3 259.5 11.7 258.9C11.2 258.4 10.4 258.1 9.59999 258.1C8.79999 258.1 7.99999 258.4 7.49999 258.9L7.39999 259C7.29999 257.6 7.69999 256.3 8.79999 255.3C11.2 252.9 14.6 253.1 17.9 253.3C20.4 253.5 22.6 253.6 24.2 252.7C24.6 252.6 25 252.3 25.3 252C25.9 251.4 26.2 250.7 26.2 249.9C26.2 249.1 25.9 248.4 25.3 247.8C24.8 247.2 24.1 246.9 23.2 246.9C22.4 246.9 21.7 247.2 21.1 247.8C20.6 248.4 20.2 249.1 20.2 249.9Z" fill="#010101"/>
<path d="M8.89999 278.7C17.2 287.1 23.8 287.1 32.2 278.7C23.8 287 23.8 293.7 32.2 302C23.9 293.7 17.2 293.7 8.89999 302C17.2 293.6 17.2 287 8.89999 278.7Z" fill="#010101"/>
</g>
<defs>
<clipPath id="clip0_3_2">
<rect width="311" height="311" fill="white"/>
</clipPath>
</defs>
</svg>
